<svg xmlns="http://www.w3.org/2000/svg" width="17.226" height="16.889" viewBox="0 0 17.226 16.889">
  <g id="Icon_ionic-md-person-add" data-name="Icon ionic-md-person-add" transform="translate(-7.6 -3.75)">
    <path id="Path_199658" data-name="Path 199658" d="M15.118,12.195A3.75,3.75,0,0,0,18.74,8.347,3.75,3.75,0,0,0,15.118,4.5,3.75,3.75,0,0,0,11.5,8.347,3.75,3.75,0,0,0,15.118,12.195Zm0,1.924c-2.4,0-7.243,1.3-7.243,3.847v1.924H22.361V17.966C22.361,15.417,17.517,14.118,15.118,14.118Z" transform="translate(0.475 0)" fill="none" stroke="#fff" stroke-width="1.5"/>
    <path id="Path_199659" data-name="Path 199659" d="M3.386,12.758V11.25H2.633v1.508H1.125v.754H2.633v1.508h.754V13.511H4.894v-.754Z" transform="translate(19.932 -1.045)" fill="#fff"/>
  </g>
</svg>
