<svg id="u:graph-bar" xmlns="http://www.w3.org/2000/svg" width="16" height="16" viewBox="0 0 16 16">
  <path id="Vector" d="M3.636,8.727H.727A.727.727,0,0,0,0,9.455v5.818A.727.727,0,0,0,.727,16H3.636a.727.727,0,0,0,.727-.727V9.455a.727.727,0,0,0-.727-.727Zm-.727,5.818H1.455V10.182H2.909ZM15.273,5.818H12.364a.727.727,0,0,0-.727.727v8.727a.727.727,0,0,0,.727.727h2.909A.727.727,0,0,0,16,15.273V6.545a.727.727,0,0,0-.727-.727Zm-.727,8.727H13.091V7.273h1.455ZM9.455,0H6.545a.727.727,0,0,0-.727.727V15.273A.727.727,0,0,0,6.545,16H9.455a.727.727,0,0,0,.727-.727V.727A.727.727,0,0,0,9.455,0ZM8.727,14.545H7.273V1.455H8.727Z" fill="#86878b"/>
</svg>
