<svg xmlns="http://www.w3.org/2000/svg" width="18" height="18" viewBox="0 0 18 18">
  <g id="Group_3226" data-name="Group 3226" transform="translate(-0.5 -0.596)">
    <path id="Path_199612" data-name="Path 199612" d="M11.613,2.73,9.2.889A1.439,1.439,0,0,0,6.9,2.118L6.96,5.224,4.521,7.033a1.512,1.512,0,0,0,.421,2.639l2.017.634L.711,16.772a.764.764,0,0,0,0,1.054.7.7,0,0,0,1.019,0L8.036,11.3l.687,2.234a1.422,1.422,0,0,0,2.555.4l1.717-2.547,3,.02a1.5,1.5,0,0,0,1.158-2.391L15.342,6.54l.945-2.948a1.466,1.466,0,0,0-1.839-1.879Zm3.307.392L11.369,4.4,8.342,2.09l.072,3.889L5.361,8.245l3.6,1.13L10.1,13.082l2.15-3.19L16,9.916l-2.267-3.1Z" fill="#fff" fill-rule="evenodd"/>
    <path id="Path_199613" data-name="Path 199613" d="M16.925,18.985a1.093,1.093,0,0,0-1.079.914l-.335,2.022a1.093,1.093,0,0,0,1.079,1.272h.2a1.093,1.093,0,0,0,1.081-.928l.308-2.022A1.093,1.093,0,0,0,17.1,18.985Zm.171.995h-.171a.1.1,0,0,0-.1.083l-.335,2.022a.1.1,0,0,0,.1.115h.2a.1.1,0,0,0,.1-.084l.308-2.022A.1.1,0,0,0,17.1,19.979Z" transform="translate(-4.208 -4.597)" fill="#fff" fill-rule="evenodd"/>
    <path id="Path_199614" data-name="Path 199614" d="M21.525,18.985H19.866a.079.079,0,0,0-.079.068l-.6,4.049a.08.08,0,0,0,.079.091h.756a.08.08,0,0,0,.078-.066l.27-1.6a.08.08,0,0,1,.078-.066h.642a.08.08,0,0,0,.078-.066l.124-.7a.08.08,0,0,0-.078-.093h-.6a.08.08,0,0,1-.079-.092l.1-.627a.079.079,0,0,1,.079-.067H21.4a.08.08,0,0,0,.078-.065l.123-.673A.079.079,0,0,0,21.525,18.985Z" transform="translate(-5.267 -4.597)" fill="#fff"/>
    <path id="Path_199615" data-name="Path 199615" d="M24.491,18.985H22.832a.08.08,0,0,0-.079.068l-.6,4.049a.08.08,0,0,0,.079.091h.756a.08.08,0,0,0,.078-.066l.27-1.6a.08.08,0,0,1,.078-.066h.642a.08.08,0,0,0,.078-.066l.124-.7a.08.08,0,0,0-.078-.093h-.6a.08.08,0,0,1-.079-.092l.1-.627a.08.08,0,0,1,.079-.067h.689a.08.08,0,0,0,.078-.065l.124-.673A.08.08,0,0,0,24.491,18.985Z" transform="translate(-6.07 -4.597)" fill="#fff"/>
  </g>
</svg>
