<svg id="Bookmark" xmlns="http://www.w3.org/2000/svg" width="20" height="24.001" viewBox="0 0 20 24.001">
  <g id="Union" fill="none" stroke-linecap="round" stroke-linejoin="round">
    <path d="M0,11.9c0,4.575.177,7.729.312,9.461A2.847,2.847,0,0,0,4.8,23.477c1.066-.729,2.048-1.511,2.79-2.1.349-.278.645-.514.872-.682C9.3,20.072,9.656,20,10,20s.7.072,1.542.694c.227.168.523.4.872.682.742.591,1.724,1.372,2.79,2.1a2.847,2.847,0,0,0,4.485-2.115c.134-1.733.312-4.887.312-9.461v-.081c0-1.791,0-3.422-.134-4.8a8.752,8.752,0,0,0-1.185-3.952C17.045.532,13.966-.016,9.992,0s-7.037.57-8.67,3.088A8.687,8.687,0,0,0,.135,7.029C0,8.4,0,10.028,0,11.818Z" stroke="none"/>
    <path d="M 10.16102123260498 2.000003814697266 L 10.16102981567383 2.000003814697266 C 10.10734272003174 2.000003814697266 10.05388736724854 2.000112533569336 9.999980926513672 2.000333786010742 C 7.952421188354492 2.008764266967773 6.482650756835938 2.17280387878418 5.374510765075684 2.51655387878418 C 4.265971183776855 2.860433578491211 3.511451721191406 3.388004302978516 2.999971389770508 4.176822662353516 C 2.530611038208008 4.900703430175781 2.260761260986328 5.840463638305664 2.124990463256836 7.223922729492188 C 1.999940872192383 8.498212814331055 1.999971389770508 10.11071300506592 2.000001907348633 11.81804370880127 L 2.000001907348633 11.90010356903076 C 1.999971389770508 16.33320236206055 2.166261672973633 19.40807342529297 2.305761337280273 21.20693397521973 C 2.350961685180664 21.78964233398438 2.839120864868164 22.00115394592285 3.156221389770508 22.00115394592285 C 3.329801559448242 22.00115394592285 3.49519157409668 21.94685363769531 3.647800445556641 21.83976364135742 C 3.654340744018555 21.83517265319824 3.660900115966797 21.83062362670898 3.667501449584961 21.82611274719238 C 4.673661231994629 21.13787269592285 5.597881317138672 20.40206336975098 6.340560913085938 19.81078338623047 C 6.701220512390137 19.52364349365234 7.012690544128418 19.27565383911133 7.267260551452637 19.08696365356445 C 8.322521209716797 18.30475234985352 9.088710784912109 18.00000381469727 10.00000095367432 18.00000381469727 C 10.91129112243652 18.00000381469727 11.67747116088867 18.30476379394531 12.73274040222168 19.08697319030762 C 12.98740100860596 19.27574348449707 13.29882049560547 19.5236930847168 13.6596508026123 19.81096267700195 C 14.40224075317383 20.40218353271484 15.32643127441406 21.13796234130859 16.33251190185547 21.82615280151367 C 16.33909034729004 21.83066368103027 16.34564018249512 21.83520317077637 16.35217094421387 21.83977317810059 C 16.50478172302246 21.94686317443848 16.6701602935791 22.00116348266602 16.84372138977051 22.00116348266602 C 17.16082000732422 22.00116348266602 17.64898109436035 21.78965377807617 17.69418144226074 21.20693397521973 C 17.83369064331055 19.40819358825684 18 16.33343315124512 18 11.90010356903076 L 18 11.81873321533203 C 18.00003051757812 10.10898303985596 18.00006103515625 8.494052886962891 17.8750114440918 7.214622497558594 C 17.73908996582031 5.824104309082031 17.46923065185547 4.879573822021484 17.0000114440918 4.152063369750977 C 16.01414108276367 2.623542785644531 14.03275108337402 2.000043869018555 10.16102123260498 2.000003814697266 M 10.16104125976562 1.9073486328125e-06 C 14.05319690704346 4.38690185546875e-05 17.06844139099121 0.5682525634765625 18.68074035644531 3.068033218383789 C 19.43753051757812 4.241403579711914 19.7293701171875 5.627172470092773 19.86552047729492 7.020053863525391 C 20.00006103515625 8.39659309387207 20.00003051757812 10.02768325805664 20 11.81887340545654 L 20 11.90010356903076 C 20 16.47479248046875 19.82260131835938 19.62866401672363 19.68819046020508 21.36159324645996 C 19.51447105407715 23.60155296325684 17.00139045715332 24.73864364624023 15.20335102081299 23.47691345214844 C 14.13731098175049 22.74771308898926 13.1556510925293 21.96615409851074 12.4136905670166 21.37544250488281 C 12.0645809173584 21.09749412536621 11.76854133605957 20.86180305480957 11.54175090789795 20.69369316101074 C 10.70272064208984 20.07176399230957 10.34366130828857 20.00000381469727 10.00000095367432 20.00000381469727 C 9.656331062316895 20.00000381469727 9.297270774841309 20.07176399230957 8.458230972290039 20.69369316101074 C 8.231460571289062 20.86178398132324 7.935351371765137 21.0975341796875 7.586291313171387 21.37544250488281 C 6.844341278076172 21.96614265441895 5.862690925598145 22.74768257141113 4.796650886535645 23.47687339782715 C 2.998603820800781 24.73866271972656 0.4854812622070312 23.6015739440918 0.3117504119873047 21.3615837097168 C 0.1773605346679688 19.62865447998047 -2.86102294921875e-05 16.47478294372559 1.9073486328125e-06 11.90009307861328 L 1.9073486328125e-06 11.81804370880127 C -2.86102294921875e-05 10.0275936126709 -5.91278076171875e-05 8.400363922119141 0.1345500946044922 7.028602600097656 C 0.2708606719970703 5.639593124389648 0.5632514953613281 4.258703231811523 1.321861267089844 3.088733673095703 C 2.954641342163086 0.5705738067626953 6.026010513305664 0.01668357849121094 9.991741180419922 0.0003528594970703125 C 10.04850196838379 0.0001201629638671875 10.10464763641357 0 10.16104125976562 1.9073486328125e-06 Z" stroke="none" fill="#212135"/>
  </g>
  <path id="Vector_61" data-name="Vector 61" d="M0,0A2.522,2.522,0,0,1,2.25.744C3,1.492,3,4,3,5" transform="translate(12 5.004)" fill="none" stroke="#212135" stroke-linecap="round" stroke-linejoin="round" stroke-width="2"/>
</svg>
