<svg xmlns="http://www.w3.org/2000/svg" width="15.591" height="15.591" viewBox="0 0 15.591 15.591">
  <g id="Group_3343" data-name="Group 3343" transform="translate(-294.204 -383.59)">
    <path id="Icon_ionic-md-checkbox-outline" data-name="Icon ionic-md-checkbox-outline" d="M18.359,18.359H6.232V6.232h8.662V4.5H6.232A1.737,1.737,0,0,0,4.5,6.232V18.359a1.737,1.737,0,0,0,1.732,1.732H18.359a1.737,1.737,0,0,0,1.732-1.732V11.429H18.359Z" transform="translate(289.704 379.091)"/>
    <path id="Icon_ionic-md-checkbox-outline-2" data-name="Icon ionic-md-checkbox-outline" d="M18.359,18.359H6.232V6.232h8.662V4.5H6.232A1.737,1.737,0,0,0,4.5,6.232V18.359a1.737,1.737,0,0,0,1.732,1.732H18.359a1.737,1.737,0,0,0,1.732-1.732V11.429H18.359Z" transform="translate(314.295 403.682) rotate(180)"/>
  </g>
</svg>
