<svg xmlns="http://www.w3.org/2000/svg" width="22.5" height="17.001" viewBox="0 0 22.5 17.001">
  <g id="Group_3425" data-name="Group 3425" transform="translate(-323.75 -57.5)">
    <g id="u:location-arrow" transform="translate(323.75 57.5)">
      <path id="Vector" d="M16.277.736a2.457,2.457,0,0,0-2.55-.6L1.7,4.152A2.464,2.464,0,0,0,1.6,8.8l4.454,1.7a.79.79,0,0,1,.451.442L8.2,15.4A2.44,2.44,0,0,0,10.5,17h.06a2.448,2.448,0,0,0,2.287-1.7L16.872,3.26a2.455,2.455,0,0,0-.6-2.524ZM15.3,2.725l-4.063,12.05a.748.748,0,0,1-.714.527.782.782,0,0,1-.74-.493l-1.7-4.461,4.185-5.392s.183-.236.091-.335-.339.13-.339.13L6.663,8.919,2.2,7.22a.765.765,0,0,1-.5-.739.748.748,0,0,1,.527-.714L14.279,1.747a.773.773,0,0,1,1.02.977Z" transform="translate(0)" fill="#fff"/>
    </g>
    <path id="Icon_awesome-plus" data-name="Icon awesome-plus" d="M4.984,4.359H3.259V2.633a.383.383,0,0,0-.383-.383H2.492a.383.383,0,0,0-.383.383V4.359H.383A.383.383,0,0,0,0,4.742v.383a.383.383,0,0,0,.383.383H2.109V7.234a.383.383,0,0,0,.383.383h.383a.383.383,0,0,0,.383-.383V5.509H4.984a.383.383,0,0,0,.383-.383V4.742A.383.383,0,0,0,4.984,4.359Z" transform="translate(340.883 62.316)" fill="#fff"/>
  </g>
</svg>
