<svg id="Comment" xmlns="http://www.w3.org/2000/svg" width="24" height="24" viewBox="0 0 24 24">
  <g id="Vector" fill="none" stroke-linecap="round" stroke-linejoin="round">
    <path d="M12,0c9.882,0,12,1.778,12,10.667C24,16.444,23,20,18.5,20s-3.084,4-6.5,4-2-4-6.5-4S0,16.331,0,10.667C0,1.883,2.118,0,12,0Z" stroke="none"/>
    <path d="M 12 2.000003814697266 C 7.338010787963867 2.000003814697266 4.832740783691406 2.45881462097168 3.622980117797852 3.534152984619141 C 2.470209121704102 4.558843612670898 2 6.625274658203125 2 10.66667366027832 C 2 13.52738380432129 2.270580291748047 15.40099430084229 2.851520538330078 16.56302452087402 C 3.282730102539062 17.42554473876953 3.89818000793457 17.9999942779541 5.500240325927734 17.9999942779541 C 9.012419700622559 17.9999942779541 10.24516010284424 19.96846389770508 10.98169040679932 21.14458465576172 C 11.17654037475586 21.45572280883789 11.37802982330322 21.77746391296387 11.53022003173828 21.90182304382324 C 11.56307983398438 21.92867469787598 11.65036964416504 21.9999942779541 12.00034999847412 22.00000381469727 C 12.35006999969482 22.00000381469727 12.43727970123291 21.92874336242676 12.4701099395752 21.90191459655762 C 12.62230968475342 21.77754402160645 12.82382011413574 21.45580291748047 13.01869964599609 21.1446533203125 C 13.75531959533691 19.96850395202637 14.98820018768311 17.9999942779541 18.5002498626709 17.9999942779541 C 20.11478042602539 17.9999942779541 20.72792053222656 17.44012451171875 21.15183067321777 16.59948348999023 C 21.91208076477051 15.09189414978027 22 12.49150371551514 22 10.66667366027832 C 22 6.588794708251953 21.53160095214844 4.5125732421875 20.38326072692871 3.500354766845703 C 19.17428016662598 2.434684753417969 16.74547958374023 2.000003814697266 12 2.000003814697266 M 12 3.814697265625e-06 C 21.88199996948242 3.814697265625e-06 24 1.777812957763672 24 10.66667366027832 C 24 16.44449424743652 23.0002498626709 19.9999942779541 18.5002498626709 19.9999942779541 C 14.00052452087402 19.9999942779541 15.41531467437744 24.00000381469727 12.00035285949707 24.00000381469727 C 12.00014400482178 24.00000381469727 12.00045871734619 24.00000381469727 12.0002498626709 24.00000381469727 C 8.584650039672852 23.99991416931152 10.0002498626709 19.9999942779541 5.500240325927734 19.9999942779541 C 1.000240325927734 19.9999942779541 0 16.33074378967285 0 10.66667366027832 C 0 1.882673263549805 2.118000030517578 3.814697265625e-06 12 3.814697265625e-06 Z" stroke="none" fill="#212135"/>
  </g>
  <circle id="Ellipse_1" data-name="Ellipse 1" cx="1" cy="1" r="1" transform="translate(7 10)" fill="#212135"/>
  <circle id="Ellipse_2" data-name="Ellipse 2" cx="1" cy="1" r="1" transform="translate(11 10)" fill="#212135"/>
  <circle id="Ellipse_3" data-name="Ellipse 3" cx="1" cy="1" r="1" transform="translate(15 10)" fill="#212135"/>
</svg>
