<svg id="u:user-location" xmlns="http://www.w3.org/2000/svg" width="13.001" height="16" viewBox="0 0 13.001 16">
  <path id="Vector" d="M12.97,6.112a6.926,6.926,0,0,0-1.146-3.231A6.573,6.573,0,0,0,9.3.657a6.288,6.288,0,0,0-6.389.47A6.7,6.7,0,0,0,.931,3.284,6.984,6.984,0,0,0,.383,9.048a6.765,6.765,0,0,0,1.529,2.495l4.053,4.222a.764.764,0,0,0,.249.174.738.738,0,0,0,.588,0,.764.764,0,0,0,.249-.174l4.038-4.222a6.765,6.765,0,0,0,1.529-2.495,6.976,6.976,0,0,0,.352-2.936Zm-2.952,4.31L6.5,14.079,2.983,10.422A5.191,5.191,0,0,1,1.82,8.513a5.384,5.384,0,0,1,.422-4.421A5.143,5.143,0,0,1,3.763,2.431a4.791,4.791,0,0,1,5.475,0,5.143,5.143,0,0,1,1.517,1.655,5.378,5.378,0,0,1,.429,4.421,5.192,5.192,0,0,1-1.166,1.916Z" transform="translate(0 0)" fill="#86878b"/>
  <path id="Vector-2" data-name="Vector" d="M12,10s-1.071,1.75-2.5.5S7,11,7,11" transform="translate(-3 -4)" fill="none" stroke="#86878b" stroke-linecap="round" stroke-linejoin="round" stroke-width="1.5"/>
</svg>
