<svg id="Delete" xmlns="http://www.w3.org/2000/svg" width="22" height="26" viewBox="0 0 22 26">
  <g id="Squircle" transform="translate(0 24)" fill="none" stroke-linecap="round" stroke-linejoin="round">
    <path d="M.433-8C2.194,0,2.3,2,11,2S19.806,0,21.567-8,19.7-18,11-18-1.328-16,.433-8Z" stroke="none"/>
    <path d="M 11.00000381469727 -16 C 6.391653060913086 -16 3.758893966674805 -15.39486026763916 2.714523315429688 -14.09558010101318 C 1.882373809814453 -13.0603199005127 1.775043487548828 -11.20709037780762 2.386392593383789 -8.42997932434082 C 2.451562881469727 -8.133970260620117 2.514463424682617 -7.846139907836914 2.57562255859375 -7.566289901733398 C 3.281593322753906 -4.335960388183594 3.747993469238281 -2.20188045501709 4.69282341003418 -1.238579750061035 C 5.555692672729492 -0.3588399887084961 7.383013725280762 0 11.00000381469727 0 C 14.61698341369629 0 16.44429397583008 -0.3588399887084961 17.30715370178223 -1.238570213317871 C 18.25198364257812 -2.201860427856445 18.7183837890625 -4.335920333862305 19.42435264587402 -7.566220283508301 C 19.48552322387695 -7.846090316772461 19.54843330383301 -8.133939743041992 19.61360359191895 -8.429989814758301 C 20.2249641418457 -11.20709037780762 20.11763381958008 -13.0603199005127 19.28549385070801 -14.09558010101318 C 18.24113273620605 -15.39486026763916 15.60835266113281 -16 11.00000381469727 -16 M 11.00000381469727 -18 C 19.7017936706543 -18 23.32797241210938 -16 21.56683349609375 -8 C 19.80569267272949 0 19.7017936706543 2 11.00000381469727 2 C 2.298213958740234 2 2.194282531738281 0 0.4331626892089844 -8 C -1.327945709228516 -16 2.298213958740234 -18 11.00000381469727 -18 Z" stroke="none" fill="#fff"/>
  </g>
  <path id="Vector_173" data-name="Vector 173" d="M4,0V6M0,0V6M8,0V6" transform="translate(7 13.333)" fill="none" stroke="#fff" stroke-linecap="round" stroke-linejoin="round" stroke-width="2"/>
  <path id="Union" d="M0,5c1.539-.888,4.872-2,10-2s8.359,1.112,10,2ZM7.778,3V1a1,1,0,0,1,1-1h2.444a1,1,0,0,1,1,1V3Z" transform="translate(1)" fill="#fff"/>
</svg>
