<svg xmlns="http://www.w3.org/2000/svg" width="19" height="19" viewBox="0 0 19 19">
  <g id="Group_3215" data-name="Group 3215" transform="translate(-0.062 -0.5)">
    <path id="Path_199597" data-name="Path 199597" d="M7.351,10.438c.712,0,1.289-.77,1.289-1.719S8.063,7,7.351,7s-1.289.77-1.289,1.719S6.639,10.438,7.351,10.438Z" transform="translate(-0.814 -0.88)" fill="#86878b"/>
    <path id="Path_199598" data-name="Path 199598" d="M15.641,8.719c0,.949-.577,1.719-1.289,1.719s-1.289-.77-1.289-1.719S13.639,7,14.351,7,15.641,7.77,15.641,8.719Z" transform="translate(-1.764 -0.88)" fill="#86878b"/>
    <path id="Path_199599" data-name="Path 199599" d="M10.641,15.327c1.289,0,2.579-.9,2.579-1.853S11.5,12.5,10.641,12.5s-2.579.024-2.579.974S9.351,15.327,10.641,15.327Z" transform="translate(-1.079 -0.868)" fill="#86878b"/>
    <path id="Path_199600" data-name="Path 199600" d="M19.062,10A9.5,9.5,0,1,1,9.562.5,9.5,9.5,0,0,1,19.062,10Zm-1.727,0A7.773,7.773,0,1,1,9.562,2.227,7.773,7.773,0,0,1,17.335,10Z" transform="translate(0 0)" fill="#86878b" fill-rule="evenodd"/>
  </g>
</svg>
