<svg xmlns="http://www.w3.org/2000/svg" width="16" height="14" viewBox="0 0 16 14">
  <g id="Icon_ionic-ios-eye-off" data-name="Icon ionic-ios-eye-off" transform="translate(-2.252 -4.499)">
    <path id="Path_199636" data-name="Path 199636" d="M5.367,4.649a.5.5,0,0,0-.715,0,.526.526,0,0,0,0,.729L17.3,18.349a.5.5,0,0,0,.715,0,.526.526,0,0,0,0-.729Z" transform="translate(-1.082)"/>
    <g id="Group_3284" data-name="Group 3284" transform="translate(2.252 6.254)">
      <path id="Path_199637" data-name="Path 199637" d="M10.592,18.18a3.287,3.287,0,0,1-3.125-4.694L5.515,11.531A25.641,25.641,0,0,0,2.4,14.5a.578.578,0,0,0,0,.779c2.372,2.621,4.463,4.876,8.031,4.876a7.038,7.038,0,0,0,3.008-.7l-1.59-1.59A3.321,3.321,0,0,1,10.592,18.18Z" transform="translate(-2.252 -9.668)"/>
      <path id="Path_199638" data-name="Path 199638" d="M23.26,13.5a.573.573,0,0,0,.018-.757c-1.912-2.321-4.562-4.873-8.06-4.873a6.843,6.843,0,0,0-3,.695l1.6,1.6a3.221,3.221,0,0,1,1.254-.314A3.287,3.287,0,0,1,18.2,14.546L20.153,16.5A24.18,24.18,0,0,0,23.26,13.5Z" transform="translate(-7.412 -7.875)"/>
      <path id="Path_199639" data-name="Path 199639" d="M13.508,17.551A2.349,2.349,0,0,0,15.661,19.7a2.285,2.285,0,0,0,.855-.1L13.6,16.692A2.391,2.391,0,0,0,13.508,17.551Z" transform="translate(-7.816 -12.131)"/>
      <path id="Path_199640" data-name="Path 199640" d="M21.778,17.868c0-.048,0-.1,0-.143a1.621,1.621,0,0,1-.665.143c-.04,0-.077,0-.113,0l.68.684A2.337,2.337,0,0,0,21.778,17.868Z" transform="translate(-11.484 -12.624)"/>
      <path id="Path_199641" data-name="Path 199641" d="M17.375,14.121a1.717,1.717,0,0,1,.113-.618c-.037,0-.073,0-.113,0a2.313,2.313,0,0,0-.676.1l.684.684C17.379,14.231,17.375,14.176,17.375,14.121Z" transform="translate(-9.368 -10.587)"/>
    </g>
  </g>
</svg>
