<svg xmlns="http://www.w3.org/2000/svg" width="14" height="18" viewBox="0 0 14 18">
  <g id="Group_3228" data-name="Group 3228" transform="translate(0 -0.5)">
    <path id="Path_199621" data-name="Path 199621" d="M4.636,1.57A1.5,1.5,0,0,1,6.074.5H11.72a1.5,1.5,0,0,1,1.3,2.256l-2,3.451a.075.075,0,0,0,.065.113H13.5a1.5,1.5,0,0,1,1.25,2.335l-2.132,3.2a.188.188,0,0,1-.289.029l-.812-.812a.188.188,0,0,1-.023-.237L13.5,7.821H10.949a1.5,1.5,0,0,1-1.3-2.256l2-3.451A.075.075,0,0,0,11.589,2H6.214a.188.188,0,0,0-.18.134L5.327,4.49a.188.188,0,0,1-.313.079l-.9-.9a.188.188,0,0,1-.047-.187Z" transform="translate(-1.002)" fill="#fff"/>
    <path id="Path_199622" data-name="Path 199622" d="M.22,5.22a.752.752,0,0,1,1.063,0l7.352,7.347.006.006,1.2,1.2.006.006,3.084,3.083a.751.751,0,0,1-1.063,1.062L9.848,15.9,7.462,19.084a1.5,1.5,0,0,1-2.7-1.043l.42-4.405H2.52a1.5,1.5,0,0,1-1.436-1.943l1.07-3.477L.22,6.282A.751.751,0,0,1,.22,5.22Zm3.136,4.2,2.719,2.717H2.622a.075.075,0,0,1-.072-.1Z" transform="translate(0 -1.189)" fill="#fff" fill-rule="evenodd"/>
  </g>
</svg>
