<svg id="u:qrcode-scan" xmlns="http://www.w3.org/2000/svg" width="16" height="16" viewBox="0 0 16 16">
  <path id="Vector" d="M5.091,14.545H2.182a.727.727,0,0,1-.727-.727V10.909a.727.727,0,1,0-1.455,0v2.909A2.182,2.182,0,0,0,2.182,16H5.091a.727.727,0,1,0,0-1.455Zm10.182-4.364a.727.727,0,0,0-.727.727v2.909a.727.727,0,0,1-.727.727H10.909a.727.727,0,1,0,0,1.455h2.909A2.182,2.182,0,0,0,16,13.818V10.909a.727.727,0,0,0-.727-.727ZM13.818,0H10.909a.727.727,0,1,0,0,1.455h2.909a.727.727,0,0,1,.727.727V5.091a.727.727,0,1,0,1.455,0V2.182A2.182,2.182,0,0,0,13.818,0ZM.727,5.818a.727.727,0,0,0,.727-.727V2.182a.727.727,0,0,1,.727-.727H5.091A.727.727,0,0,0,5.091,0H2.182A2.182,2.182,0,0,0,0,2.182V5.091a.727.727,0,0,0,.727.727ZM6.545,2.909H3.636a.727.727,0,0,0-.727.727V6.545a.727.727,0,0,0,.727.727H6.545a.727.727,0,0,0,.727-.727V3.636a.727.727,0,0,0-.727-.727ZM5.818,5.818H4.364V4.364H5.818ZM9.455,7.273h2.909a.727.727,0,0,0,.727-.727V3.636a.727.727,0,0,0-.727-.727H9.455a.727.727,0,0,0-.727.727V6.545a.727.727,0,0,0,.727.727Zm.727-2.909h1.455V5.818H10.182ZM6.545,8.727H3.636a.727.727,0,0,0-.727.727v2.909a.727.727,0,0,0,.727.727H6.545a.727.727,0,0,0,.727-.727V9.455a.727.727,0,0,0-.727-.727Zm-.727,2.909H4.364V10.182H5.818Zm3.636-.727a.727.727,0,0,0,.727-.727.727.727,0,1,0,0-1.455H9.455a.727.727,0,0,0-.727.727v.727a.727.727,0,0,0,.727.727Zm2.909-2.182a.727.727,0,0,0-.727.727v2.182a.727.727,0,1,0,0,1.455h.727a.727.727,0,0,0,.727-.727V9.455a.727.727,0,0,0-.727-.727ZM9.455,11.636a.727.727,0,1,0,.514.213A.727.727,0,0,0,9.455,11.636Z" transform="translate(0 0)" fill="#86878b"/>
</svg>
