<svg id="Vector" xmlns="http://www.w3.org/2000/svg" xmlns:xlink="http://www.w3.org/1999/xlink" width="13" height="13" viewBox="0 0 13 13">
  <defs>
    <linearGradient id="linear-gradient" x1="0.718" y1="0.207" x2="0" y2="1.054" gradientUnits="objectBoundingBox">
      <stop offset="0" stop-color="#f1334e"/>
      <stop offset="1" stop-color="#e8001b"/>
    </linearGradient>
  </defs>
  <path id="Path_3040" data-name="Path 3040" d="M6.5,13A6.5,6.5,0,1,0,0,6.5,6.5,6.5,0,0,0,6.5,13Z" fill="url(#linear-gradient)"/>
  <g id="Group_2873" data-name="Group 2873">
    <path id="Path_3041" data-name="Path 3041" d="M10.564,3.944a.087.087,0,0,1-.151-.023L10.4,3.894a.086.086,0,0,1,0-.054,1.886,1.886,0,0,0-.044-.792h0a1.886,1.886,0,0,0-.772.182.084.084,0,0,1-.051.014H9.506A.087.087,0,0,1,9.441,3.1l.01-.011a1.6,1.6,0,0,1,1.193-.461h.01a.023.023,0,0,1,.017.013l.007.015a1.6,1.6,0,0,1-.106,1.27Z" fill="#fff"/>
    <path id="Path_3042" data-name="Path 3042" d="M8.212,6.092c.184,0,.255.082.255.164A10.333,10.333,0,0,1,7.69,7.441c-.072.112-.1.153-.184.153a9.673,9.673,0,0,0-1.687-.2,18.291,18.291,0,0,0-.829,2.68c-.031.184-.082.3-.245.3-.47,0-1.278-.123-1.278-.491A27.152,27.152,0,0,1,5.359,4.763l0-.008a.262.262,0,0,0-.319-.379,1.861,1.861,0,0,0-1.4,1.563,1.709,1.709,0,0,0,.255.9c0,.061-.061.1-.164.1a1.581,1.581,0,0,1-1.5-1.452c0-1.708,2.076-2.045,4.09-2.045,1.084,0,1.974.112,2.393.112a4.731,4.731,0,0,0,1.4-.286.107.107,0,0,1,.113.112c0,.613-.871,1.234-1.259,1.234s-1-.242-1.7-.242c-.133,0-.235.082-.348.286-.317.624-.63,1.434-.9,2.1A6.336,6.336,0,0,1,8.212,6.092Z" fill="#fff"/>
  </g>
</svg>
