<svg xmlns="http://www.w3.org/2000/svg" width="22" height="18" viewBox="0 0 22 18">
  <g id="Group_3220" data-name="Group 3220" transform="translate(-0.5)">
    <path id="Path_199601" data-name="Path 199601" d="M4.574,9.778a.815.815,0,0,1-1.336.626L.793,8.367A.815.815,0,0,1,1.836,7.115l1.108.923V4.889A4.889,4.889,0,0,1,7.833,0h8.148a3.259,3.259,0,0,1,1.956.652l.978.733a.815.815,0,0,1-.978,1.3l-.978-.733a1.63,1.63,0,0,0-.978-.326H7.833A3.259,3.259,0,0,0,4.574,4.889Z" transform="translate(0)" fill="#fff"/>
    <path id="Path_199602" data-name="Path 199602" d="M19.167,9.814A.815.815,0,0,1,20.5,9.188l2.444,2.037A.815.815,0,1,1,21.9,12.477L20.8,11.554V14.7a4.889,4.889,0,0,1-4.889,4.889H7.759A3.259,3.259,0,0,1,5.8,18.94l-.978-.733A.815.815,0,0,1,5.8,16.9l.978.733a1.629,1.629,0,0,0,.978.326h8.148A3.259,3.259,0,0,0,19.167,14.7Z" transform="translate(-0.741 -1.592)" fill="#fff"/>
    <path id="Path_199603" data-name="Path 199603" d="M16.833,10.167A3.667,3.667,0,1,1,13.167,6.5,3.667,3.667,0,0,1,16.833,10.167Zm-1.63,0A2.037,2.037,0,1,1,13.167,8.13,2.037,2.037,0,0,1,15.2,10.167Z" transform="translate(-1.667 -1.167)" fill="#fff" fill-rule="evenodd"/>
  </g>
</svg>
