<svg id="u:globe" xmlns="http://www.w3.org/2000/svg" width="24" height="24" viewBox="0 0 24 24">
  <path id="Vector" d="M19.37,6.611v-.05a10,10,0,0,0-18.78,0v.05a9.86,9.86,0,0,0,0,6.72v.05a10,10,0,0,0,18.78,0v-.05a9.86,9.86,0,0,0,0-6.72ZM2.22,11.971a7.82,7.82,0,0,1,0-4H4.08a16.73,16.73,0,0,0,0,4Zm.82,2h1.4a12.15,12.15,0,0,0,1,2.57A8,8,0,0,1,3.04,13.971Zm1.4-8H3.04A8,8,0,0,1,5.41,3.4a12.15,12.15,0,0,0-.97,2.57Zm4.52,11.7a6.34,6.34,0,0,1-2.43-3.7H8.96Zm0-5.7H6.1a14.36,14.36,0,0,1,0-4H8.96Zm0-6H6.53a6.34,6.34,0,0,1,2.43-3.7Zm7.92,0h-1.4a12.15,12.15,0,0,0-1-2.57A8,8,0,0,1,16.88,5.971Zm-5.92-3.7a6.34,6.34,0,0,1,2.43,3.7H10.96Zm0,15.4v-3.7h2.43a6.34,6.34,0,0,1-2.43,3.7Zm2.86-5.7H10.96v-4h2.86A14.36,14.36,0,0,1,13.82,11.971Zm.69,4.57a12.15,12.15,0,0,0,1-2.57h1.4A8,8,0,0,1,14.51,16.541Zm3.19-4.57H15.84a16.16,16.16,0,0,0,.12-2,16.28,16.28,0,0,0-.12-2H17.7A7.82,7.82,0,0,1,17.7,11.971Z" transform="translate(2.04 2.029)"/>
</svg>
