<svg xmlns="http://www.w3.org/2000/svg" width="16" height="16" viewBox="0 0 16 16">
  <g id="Home" transform="translate(-547 -401)">
    <rect id="Rectangle_1" data-name="Rectangle 1" width="16" height="16" transform="translate(547 401)" fill="none"/>
    <g id="Home-2" data-name="Home" transform="translate(547 401)">
      <g id="Squircle" transform="translate(0)">
        <path id="Path_1" data-name="Path 1" d="M.148,6A20.9,20.9,0,0,0,.49,12.953c.376,1.727,1.358,2.52,3.427,2.783q.712.094,1.412.151a31.942,31.942,0,0,0,5.334,0q.732-.06,1.475-.153c2.071-.259,3.084-1.044,3.427-2.783a26.479,26.479,0,0,0,.343-6.958C15.858,5.247,11.847,2.186,9.566.5A2.579,2.579,0,0,0,6.494.513C4.235,2.2.26,5.249.148,6Z" transform="translate(0 0)" fill="none"/>
        <path id="Path_2" data-name="Path 2" d="M8.037,1.412a1.166,1.166,0,0,0-.7.234A44.951,44.951,0,0,0,1.513,6.429a19.985,19.985,0,0,0,.356,6.222c.218,1,.591,1.476,2.226,1.685.453.058.909.106,1.356.144.85.072,1.71.108,2.555.108s1.692-.035,2.544-.105c.465-.038.941-.088,1.416-.147a3.341,3.341,0,0,0,1.652-.536,1.71,1.71,0,0,0,.565-1.119,24.493,24.493,0,0,0,.338-6.308A43.68,43.68,0,0,0,8.733,1.642a1.165,1.165,0,0,0-.7-.23M8.037,0A2.58,2.58,0,0,1,9.571.506c2.28,1.683,6.291,4.743,6.34,5.489a26.476,26.476,0,0,1-.343,6.959c-.342,1.74-1.358,2.525-3.427,2.783q-.744.093-1.475.153a31.944,31.944,0,0,1-5.333,0q-.706-.059-1.416-.15C1.848,15.473.868,14.681.49,12.953A20.9,20.9,0,0,1,.148,5.995C.26,5.249,4.232,2.2,6.493.513A2.581,2.581,0,0,1,8.037,0Z" transform="translate(0 0)"/>
      </g>
      <path id="Squircle-2" data-name="Squircle" d="M13.064,20.265V15.378A1.363,1.363,0,0,0,11.8,14.109H9.266A1.363,1.363,0,0,0,8,15.378v4.884" transform="translate(-2.532 -6.11)" fill="none" stroke="#000" stroke-linecap="round" stroke-linejoin="round" stroke-width="1.5"/>
    </g>
  </g>
</svg>
