<svg id="u:ellipsis-h" xmlns="http://www.w3.org/2000/svg" width="14" height="3" viewBox="0 0 14 3">
  <path id="Vector" d="M7,0a1.6,1.6,0,0,0-.864.253,1.513,1.513,0,0,0-.573.673,1.45,1.45,0,0,0-.089.867,1.484,1.484,0,0,0,.426.768,1.574,1.574,0,0,0,.8.411,1.609,1.609,0,0,0,.9-.085,1.545,1.545,0,0,0,.7-.552A1.46,1.46,0,0,0,8.1.439,1.585,1.585,0,0,0,7,0ZM1.556,0A1.6,1.6,0,0,0,.691.253,1.513,1.513,0,0,0,.118.926a1.45,1.45,0,0,0-.089.867,1.484,1.484,0,0,0,.426.768,1.574,1.574,0,0,0,.8.411,1.609,1.609,0,0,0,.9-.085,1.545,1.545,0,0,0,.7-.552A1.46,1.46,0,0,0,2.656.439,1.585,1.585,0,0,0,1.556,0ZM12.444,0a1.6,1.6,0,0,0-.864.253,1.513,1.513,0,0,0-.573.673,1.45,1.45,0,0,0-.089.867,1.484,1.484,0,0,0,.426.768,1.574,1.574,0,0,0,.8.411,1.609,1.609,0,0,0,.9-.085,1.545,1.545,0,0,0,.7-.552A1.46,1.46,0,0,0,13.544.439,1.585,1.585,0,0,0,12.444,0Z"/>
</svg>
