<svg xmlns="http://www.w3.org/2000/svg" width="16.212" height="16.212" viewBox="0 0 16.212 16.212">
  <g id="icsearch" transform="translate(-659 -401)">
    <rect id="Rectangle_3" data-name="Rectangle 3" width="16" height="16" transform="translate(659 401)" fill="none"/>
    <g id="icsearch-2" data-name="icsearch" transform="translate(659 401)">
      <g id="Squircle">
        <path id="Path_5" data-name="Path 5" d="M0-15.428C0-9.609,2.054-7.9,7.529-7.9s7.529-1.711,7.529-7.529-2.054-7.529-7.529-7.529S0-21.245,0-15.428Z" transform="translate(0 22.957)" fill="none"/>
        <path id="Path_6" data-name="Path 6" d="M7.529-21.545c-2.494,0-3.987.366-4.838,1.187-.873.842-1.279,2.408-1.279,4.93s.407,4.089,1.279,4.93c.852.821,2.344,1.187,4.838,1.187s3.987-.366,4.838-1.187c.873-.842,1.279-2.408,1.279-4.93s-.406-4.089-1.279-4.93c-.852-.821-2.344-1.187-4.838-1.187m0-1.412c5.476,0,7.529,1.711,7.529,7.529S13.005-7.9,7.529-7.9,0-9.609,0-15.427,2.053-22.956,7.529-22.956Z" transform="translate(0 22.957)"/>
      </g>
      <path id="Vector_164" data-name="Vector 164" d="M1.975,1.975,0,0" transform="translate(13.176 13.176)" fill="none" stroke="#000" stroke-linecap="round" stroke-linejoin="round" stroke-width="1.5"/>
    </g>
  </g>
</svg>
