<?xml version="1.0" encoding="UTF-8" standalone="no"?> <svg width="24" height="24" viewBox="0 0 24 24" fill="none" xmlns="http://www.w3.org/2000/svg">
<path fill-rule="evenodd" clip-rule="evenodd" d="M21.1568 4.15386C21.5068 3.32665 20.6734 2.49328 19.8462 2.84325L3.46966 9.77178C2.60871 10.136 2.67381 11.3772 3.56814 11.6494L8.7707 13.2328C8.9155 13.2769 9.05556 13.3314 9.18998 13.3956L14.2927 8.29291C14.6832 7.90239 15.3164 7.90239 15.7069 8.29291C16.0974 8.68344 16.0974 9.3166 15.7069 9.70712L10.6043 14.8098C10.6685 14.9443 10.7231 15.0844 10.7672 15.2293L12.3506 20.4319C12.6228 21.3262 13.864 21.3913 14.2283 20.5304L21.1568 4.15386ZM19.0669 1.00131C21.5485 -0.0486059 24.0486 2.45151 22.9987 4.93314L16.0702 21.3097C14.9775 23.8925 11.2538 23.6972 10.4373 21.0142L8.85389 15.8117C8.80534 15.6522 8.71878 15.5102 8.60426 15.3957C8.48979 15.2812 8.34782 15.1947 8.18837 15.1462L2.98581 13.5628C0.302836 12.7462 0.107539 9.02259 2.69038 7.92985L19.0669 1.00131Z" fill="#293644"/>
</svg>
