<svg id="u:instagram" xmlns="http://www.w3.org/2000/svg" width="15" height="15" viewBox="0 0 15 15">
  <g id="Vector" transform="translate(0 0)" fill="none">
    <path d="M11.505,2.6a.9.9,0,1,0,.636.264.9.9,0,0,0-.636-.264Zm3.45,1.815a5.692,5.692,0,0,0-.345-1.822,3.705,3.705,0,0,0-.87-1.327A3.525,3.525,0,0,0,12.412.4,5.475,5.475,0,0,0,10.59.045C9.8,0,9.54,0,7.5,0S5.2,0,4.41.045A5.475,5.475,0,0,0,2.587.4,3.585,3.585,0,0,0,1.26,1.26,3.525,3.525,0,0,0,.4,2.587,5.475,5.475,0,0,0,.045,4.41C0,5.2,0,5.46,0,7.5s0,2.3.045,3.09A5.475,5.475,0,0,0,.4,12.412,3.525,3.525,0,0,0,1.26,13.74a3.585,3.585,0,0,0,1.327.862,5.475,5.475,0,0,0,1.822.353C5.2,15,5.46,15,7.5,15s2.3,0,3.09-.045a5.475,5.475,0,0,0,1.822-.353,3.525,3.525,0,0,0,1.328-.862,3.638,3.638,0,0,0,.87-1.328,5.692,5.692,0,0,0,.345-1.822c0-.795.045-1.05.045-3.09s0-2.3-.045-3.09ZM13.6,10.5a4.207,4.207,0,0,1-.255,1.4,2.3,2.3,0,0,1-.562.862,2.392,2.392,0,0,1-.863.563,4.208,4.208,0,0,1-1.395.255c-.75.037-1.028.045-3,.045s-2.25,0-3-.045a4.3,4.3,0,0,1-1.455-.225,2.453,2.453,0,0,1-.825-.562,2.25,2.25,0,0,1-.555-.863,4.155,4.155,0,0,1-.3-1.425c0-.75-.045-1.028-.045-3s0-2.25.045-3a4.155,4.155,0,0,1,.263-1.425A2.25,2.25,0,0,1,2.25,2.25a2.355,2.355,0,0,1,.825-.6A4.3,4.3,0,0,1,4.5,1.395c.75,0,1.028-.045,3-.045s2.25,0,3,.045a4.208,4.208,0,0,1,1.4.255,2.3,2.3,0,0,1,.892.6,2.3,2.3,0,0,1,.563.825A4.208,4.208,0,0,1,13.6,4.5c.037.75.045,1.028.045,3S13.642,9.75,13.6,10.5ZM7.5,3.652a3.84,3.84,0,1,0,1.476.289A3.847,3.847,0,0,0,7.5,3.652ZM7.5,10a2.5,2.5,0,1,1,.956-.19A2.5,2.5,0,0,1,7.5,10Z" stroke="none"/>
    <path d="M 7.5 0 C 9.539999961853027 0 9.795000076293945 0 10.59000015258789 0.04500007629394531 C 11.2131404876709 0.05790996551513672 11.82948970794678 0.1771202087402344 12.41250038146973 0.3975000381469727 C 12.91466999053955 0.5806303024291992 13.36861991882324 0.8755702972412109 13.73999977111816 1.260000228881836 C 14.12248992919922 1.63446044921875 14.4193000793457 2.087349891662598 14.60999965667725 2.587499618530273 C 14.8238697052002 3.172050476074219 14.94040966033936 3.7877197265625 14.95499992370605 4.409999847412109 C 15 5.204999923706055 15 5.460000038146973 15 7.5 C 15 9.539999961853027 14.95499992370605 9.795000076293945 14.95499992370605 10.59000015258789 C 14.94040966033936 11.2122802734375 14.8238697052002 11.82794952392578 14.60999965667725 12.41250038146973 C 14.42125034332275 12.91364002227783 14.12417984008789 13.36693954467773 13.73999977111816 13.73999977111816 C 13.36861991882324 14.12442970275879 12.91466999053955 14.4193696975708 12.41250038146973 14.60249996185303 C 11.82948970794678 14.82287979125977 11.2131404876709 14.94209003448486 10.59000015258789 14.95499992370605 C 9.795000076293945 15 9.539999961853027 15 7.5 15 C 5.460000038146973 15 5.204999923706055 15 4.409999847412109 14.95499992370605 C 3.786860466003418 14.94209003448486 3.170510292053223 14.82287979125977 2.587499618530273 14.60249996185303 C 2.086259841918945 14.41751003265381 1.632699966430664 14.12283039093018 1.260000228881836 13.73999977111816 C 0.8755702972412109 13.36861991882324 0.5806303024291992 12.91466999053955 0.3975000381469727 12.41250038146973 C 0.1771202087402344 11.82948970794678 0.05790996551513672 11.2131404876709 0.04500007629394531 10.59000015258789 C 0 9.795000076293945 0 9.539999961853027 0 7.5 C 0 5.460000038146973 0 5.204999923706055 0.04500007629394531 4.409999847412109 C 0.05790996551513672 3.786860466003418 0.1771202087402344 3.170510292053223 0.3975000381469727 2.587499618530273 C 0.5806303024291992 2.085330009460449 0.8755702972412109 1.631380081176758 1.260000228881836 1.260000228881836 C 1.632699966430664 0.8771696090698242 2.086259841918945 0.5824899673461914 2.587499618530273 0.3975000381469727 C 3.170510292053223 0.1771202087402344 3.786860466003418 0.05790996551513672 4.409999847412109 0.04500007629394531 C 5.204999923706055 0 5.460000038146973 0 7.5 0 Z M 7.53000020980835 13.61999988555908 C 9.502500534057617 13.61999988555908 9.780000686645508 13.61250019073486 10.53000068664551 13.57499980926514 C 11.00607967376709 13.56954002380371 11.47778034210205 13.48330974578857 11.92500019073486 13.31999969482422 C 12.24991989135742 13.19731998443604 12.54423999786377 13.00537967681885 12.78750038146973 12.75749969482422 C 13.03791046142578 12.51632022857666 13.23025035858154 12.22140026092529 13.35000038146973 11.89500045776367 C 13.51330947875977 11.44777965545654 13.5995397567749 10.9760799407959 13.60499954223633 10.5 C 13.64249992370605 9.75 13.64999961853027 9.472499847412109 13.64999961853027 7.5 C 13.64999961853027 5.527500152587891 13.64249992370605 5.25 13.60499954223633 4.5 C 13.60297012329102 4.013830184936523 13.51669025421143 3.531700134277344 13.35000038146973 3.074999809265137 C 13.22531986236572 2.762049674987793 13.03328037261963 2.480380058288574 12.78750038146973 2.25 C 12.54171943664551 1.98213005065918 12.23581981658936 1.776490211486816 11.89500045776367 1.649999618530273 C 11.44777965545654 1.486680030822754 10.9760799407959 1.400460243225098 10.5 1.395000457763672 C 9.75 1.350000381469727 9.472499847412109 1.350000381469727 7.5 1.350000381469727 C 5.527500152587891 1.350000381469727 5.25 1.395000457763672 4.5 1.395000457763672 C 4.013999938964844 1.398810386657715 3.532159805297852 1.485030174255371 3.074999809265137 1.649999618530273 C 2.759469985961914 1.787320137023926 2.477860450744629 1.992130279541016 2.25 2.25 C 1.992199897766113 2.476240158081055 1.78954029083252 2.758429527282715 1.657500267028809 3.074999809265137 C 1.487210273742676 3.530960083007812 1.398360252380371 4.013290405273438 1.395000457763672 4.5 C 1.350000381469727 5.25 1.350000381469727 5.527500152587891 1.350000381469727 7.5 C 1.350000381469727 9.472499847412109 1.395000457763672 9.75 1.395000457763672 10.5 C 1.410329818725586 10.98896026611328 1.511890411376953 11.471360206604 1.694999694824219 11.92500019073486 C 1.811129570007324 12.25139045715332 2.001070022583008 12.54656028747559 2.25 12.78750038146973 C 2.483519554138184 13.02958965301514 2.764340400695801 13.22105979919434 3.074999809265137 13.35000038146973 C 3.543450355529785 13.50813961029053 4.035679817199707 13.58424949645996 4.529999732971191 13.57499980926514 C 5.279999732971191 13.61999988555908 5.557499885559082 13.61999988555908 7.53000020980835 13.61999988555908 Z M 11.50500011444092 2.595000267028809 C 11.74370002746582 2.595000267028809 11.97261047363281 2.689820289611816 12.14140033721924 2.858599662780762 C 12.31017971038818 3.027389526367188 12.40499973297119 3.25631046295166 12.40499973297119 3.494999885559082 C 12.40499973297119 3.673000335693359 12.35221004486084 3.847009658813477 12.25331974029541 3.995010375976562 C 12.1544303894043 4.143019676208496 12.01387023925781 4.258370399475098 11.84942054748535 4.32649040222168 C 11.68496036529541 4.394610404968262 11.50399971008301 4.412428855895996 11.32942008972168 4.377710342407227 C 11.15484046936035 4.34298038482666 10.99447059631348 4.257260322570801 10.8685998916626 4.131400108337402 C 10.74274063110352 4.00553035736084 10.65702056884766 3.845159530639648 10.62228965759277 3.67057991027832 C 10.58757019042969 3.496000289916992 10.60539054870605 3.31503963470459 10.67350959777832 3.150589942932129 C 10.74163055419922 2.986129760742188 10.85697937011719 2.845569610595703 11.00498962402344 2.74668025970459 C 11.15299034118652 2.647780418395996 11.32699966430664 2.595000267028809 11.50500011444092 2.595000267028809 Z M 7.515022754669189 3.652470588684082 C 8.016063690185547 3.652481079101562 8.512387275695801 3.750545501708984 8.975850105285645 3.941200256347656 C 9.443960189819336 4.133760452270508 9.869390487670898 4.416970252990723 10.2276496887207 4.774539947509766 C 10.5859203338623 5.132109642028809 10.86995983123779 5.556980133056641 11.0634298324585 6.024720191955566 C 11.2568998336792 6.492449760437012 11.35598945617676 6.993829727172852 11.35499954223633 7.5 C 11.35499954223633 8.260640144348145 11.12952995300293 9.004220008850098 10.70709991455078 9.636770248413086 C 10.28466033935547 10.26933002471924 9.684200286865234 10.76247024536133 8.981599807739258 11.05389976501465 C 8.279000282287598 11.34533023834229 7.505781173706055 11.42195892333984 6.759639739990234 11.27410984039307 C 6.013509750366211 11.12625980377197 5.327939987182617 10.76057052612305 4.789560317993164 10.22323036193848 C 4.251179695129395 9.68589973449707 3.884149551391602 9.001039505004883 3.73484992980957 8.255199432373047 C 3.585539817810059 7.509349822998047 3.660670280456543 6.735980033874512 3.950730323791504 6.032810211181641 C 4.240779876708984 5.329649925231934 4.732760429382324 4.728230476379395 5.364489555358887 4.304559707641602 C 5.996219635009766 3.880889892578125 6.739359855651855 3.653980255126953 7.5 3.652500152587891 C 7.505035877227783 3.652480125427246 7.509987831115723 3.652470588684082 7.515022754669189 3.652470588684082 Z M 7.5 9.997499465942383 C 7.827980041503906 9.997499465942383 8.152740478515625 9.932899475097656 8.45574951171875 9.807390213012695 C 8.758760452270508 9.681879997253418 9.034080505371094 9.497909545898438 9.265999794006348 9.265999794006348 C 9.497909545898438 9.034080505371094 9.681879997253418 8.758760452270508 9.807390213012695 8.45574951171875 C 9.932899475097656 8.152740478515625 9.997499465942383 7.827980041503906 9.997499465942383 7.5 C 9.997499465942383 7.006040096282959 9.851019859313965 6.52318000793457 9.576600074768066 6.112460136413574 C 9.302169799804688 5.701749801635742 8.912109375 5.381640434265137 8.45574951171875 5.192609786987305 C 7.999390602111816 5.003581047058105 7.497231006622314 4.954118728637695 7.012760162353516 5.050490379333496 C 6.528289794921875 5.146860122680664 6.083279609680176 5.384719848632812 5.734000205993652 5.734000205993652 C 5.384719848632812 6.083279609680176 5.146860122680664 6.528289794921875 5.050490379333496 7.012760162353516 C 4.954119682312012 7.497230052947998 5.003580093383789 7.999390125274658 5.192609786987305 8.45574951171875 C 5.381640434265137 8.912109375 5.701749801635742 9.302169799804688 6.112460136413574 9.576600074768066 C 6.52318000793457 9.851019859313965 7.006040096282959 9.997499465942383 7.5 9.997499465942383 Z" stroke="none" fill="#86878b"/>
  </g>
</svg>
