<svg id="u:globe" xmlns="http://www.w3.org/2000/svg" width="16" height="16" viewBox="0 0 16 16">
  <path id="Vector" d="M15.527,5.3v-.04a8.014,8.014,0,0,0-15.054,0V5.3a7.918,7.918,0,0,0,0,5.392v.04a8.014,8.014,0,0,0,15.054,0V10.7a7.918,7.918,0,0,0,0-5.392ZM1.78,9.6a6.28,6.28,0,0,1,0-3.209H3.271a13.436,13.436,0,0,0,0,3.209Zm.657,1.6H3.559a9.754,9.754,0,0,0,.8,2.062A6.416,6.416,0,0,1,2.437,11.209ZM3.559,4.791H2.437a6.416,6.416,0,0,1,1.9-2.062,9.754,9.754,0,0,0-.778,2.062Zm3.623,9.387a5.087,5.087,0,0,1-1.948-2.969H7.182Zm0-4.573H4.89a11.532,11.532,0,0,1,0-3.209H7.182Zm0-4.814H5.235A5.087,5.087,0,0,1,7.182,1.822Zm6.349,0H12.409a9.754,9.754,0,0,0-.8-2.062A6.416,6.416,0,0,1,13.531,4.791ZM8.786,1.822a5.087,5.087,0,0,1,1.948,2.969H8.786Zm0,12.356V11.209h1.948a5.087,5.087,0,0,1-1.948,2.969ZM11.078,9.6H8.786V6.4h2.293A11.532,11.532,0,0,1,11.078,9.6Zm.553,3.667a9.754,9.754,0,0,0,.8-2.062h1.122A6.416,6.416,0,0,1,11.631,13.271ZM14.188,9.6H12.7a12.978,12.978,0,0,0,.1-1.6,13.074,13.074,0,0,0-.1-1.6h1.491A6.28,6.28,0,0,1,14.188,9.6Z" transform="translate(0)" fill="#86878b"/>
</svg>
