<svg xmlns="http://www.w3.org/2000/svg" width="20" height="18" viewBox="0 0 20 18">
  <path id="heart_1_" data-name="heart (1)" d="M17.493,1.664A5.1,5.1,0,0,0,13.693,0a4.763,4.763,0,0,0-2.985,1.036A6.127,6.127,0,0,0,9.5,2.3,6.124,6.124,0,0,0,8.293,1.036,4.762,4.762,0,0,0,5.308,0a5.1,5.1,0,0,0-3.8,1.664A5.992,5.992,0,0,0,0,5.743,7.134,7.134,0,0,0,1.885,10.4,40.279,40.279,0,0,0,6.6,14.851c.654.56,1.395,1.2,2.164,1.872a1.111,1.111,0,0,0,1.469,0c.769-.677,1.511-1.312,2.165-1.872A40.256,40.256,0,0,0,17.116,10.4,7.133,7.133,0,0,0,19,5.742a5.992,5.992,0,0,0-1.507-4.079Zm0,0" transform="translate(0.5 0.5)" fill="#ff002a" stroke="#fff" stroke-width="1"/>
</svg>
