<svg width="310" height="186" viewBox="0 0 310 186" fill="none" xmlns="http://www.w3.org/2000/svg">
<path d="M151.217 180.796C151.217 184.046 150.568 186 147.123 186C137.009 186 123.016 183.396 123.016 175.589C123.016 159.974 164.776 77.1416 164.776 59.7822C164.776 57.6156 166.711 56.0952 170.812 56.0952C179.866 56.0952 191.905 65.8563 191.905 71.9266C191.897 84.7209 151.217 164.326 151.217 180.796Z" fill="url(#paint0_linear_576_141)"/>
<path d="M198.229 180.508C198.229 183.936 197.544 186 193.885 186C183.143 186 168.286 183.254 168.286 175.015C168.286 158.535 191.143 125.578 191.143 107.269C191.143 104.984 193.201 103.38 197.544 103.38C211.257 103.38 219.713 113.664 219.713 120.085C219.713 133.359 198.229 163.113 198.229 180.508ZM224.742 58.0635C232.973 58.0635 239.143 63.3272 239.143 71.7941C239.143 83.468 230.23 94.4524 219.713 94.4524C211.725 94.4524 204.631 89.1887 204.631 80.9503C204.631 69.0632 213.543 58.0635 224.742 58.0635Z" fill="url(#paint1_linear_576_141)"/>
<path d="M309.016 113.457C307.957 118.189 302.921 120.749 298.434 119.621C283.358 117.867 272.563 122.72 266.114 129.698C265.062 130.833 264.104 132.051 263.25 133.34C262.642 134.243 262.094 135.184 261.608 136.158C261.102 137.162 260.66 138.197 260.286 139.257C258.081 145.501 258.081 153.15 263.619 158.247C268.735 162.497 275.553 162.072 281.522 160.796C287.06 159.098 291.749 155.274 297.364 155.031C298.133 155.019 298.889 155.235 299.537 155.649C300.185 156.064 300.695 156.66 301.005 157.363C301.329 158.099 301.484 158.899 301.459 159.703C301.434 160.507 301.23 161.296 300.861 162.011C292.416 177.09 273.816 184.367 257.288 185.852C227.41 187.956 214.745 167.389 224.862 140.803C234.042 120.806 253.43 106.343 274.825 101.619C285.213 99.1612 308.338 99.1156 309.016 113.457Z" fill="url(#paint2_linear_576_141)"/>
<path d="M180.417 31.4198C178.877 33.9143 175.503 31.5171 176.353 29.1199C177.561 24.8874 178.92 8.89351 172.744 10.3056C168.511 10.5453 161.2 11.3207 156.871 13.9014C156.809 13.9351 156.74 13.9651 156.675 13.9951C154.589 14.8753 152.65 12.4369 153.939 10.624C157.017 6.27905 167.149 1.88168 174.918 0.559468C193.769 -4.65071 183.545 28.161 180.417 31.4198Z" fill="url(#paint3_linear_576_141)"/>
<path d="M166.814 30.2264C144.273 74.1186 112.937 32.1247 93.4879 54.4941C86.298 65.8535 83.6763 80.3108 78.558 91.2488C85.505 89.677 140.072 76.4801 127.343 95.0453C122.236 102.904 117.061 110.714 111.954 118.584C110.854 120.277 109.537 121.021 107.458 120.706C95.4685 118.55 83.3879 117.646 71.2239 117.369C70.2526 117.324 69.8087 117.783 69.5051 118.649C62.4404 139.105 55.7476 159.796 52.2342 181.224C51.5475 184.743 50.0678 185.973 46.4899 186C11.5838 185.544 15.6473 176.508 24.6925 147.563C27.8151 136.933 31.2602 126.481 34.9177 116.097C41.5158 97.384 48.8195 78.8188 56.0777 60.2877L59.8718 50.7241C60.0086 50.3796 60.04 50.0021 59.9621 49.6397C59.8843 49.2772 59.7006 48.9461 59.4344 48.6883C59.1681 48.4304 58.8314 48.2575 58.4669 48.1914C58.1023 48.1253 57.7263 48.1691 57.3867 48.3171C42.1114 55.0066 31.025 70.8384 25.5917 80.5044C24.4309 82.5648 22.7204 84.2616 20.6515 85.4054C18.5825 86.5492 16.2364 87.0948 13.8754 86.9814L1.65072 86.4043C1.39398 86.392 1.1432 86.3227 0.916517 86.2014C0.689838 86.0802 0.492932 85.91 0.340052 85.7033C0.187172 85.4965 0.0821421 85.2583 0.0325628 85.006C-0.0170165 84.7536 -0.00990451 84.4933 0.0533843 84.2441C1.44827 78.5309 3.5808 73.0238 6.39719 67.8619C6.92837 66.8861 7.48231 65.9294 8.05143 64.9916C13.3632 56.4304 19.8133 48.4575 28.2287 42.3223C29.2253 41.5452 30.237 40.7859 31.264 40.0443C36.339 36.4221 41.8923 33.5229 47.7647 31.4299C48.9409 30.9769 50.1335 30.5618 51.3426 30.1846C52.5517 29.8075 53.7759 29.4709 55.0153 29.1748C56.237 28.828 57.4676 28.5192 58.707 28.2484C59.9477 27.9788 61.2036 27.7434 62.4708 27.5536C63.7039 27.2992 64.9446 27.0676 66.1853 26.855C68.6666 26.4336 71.167 26.0957 73.6635 25.8224C75.1635 25.7287 76.6596 25.6857 78.152 25.6933C79.5634 25.6705 80.9786 25.6667 82.3938 25.6705C91.587 25.7161 100.845 26.3045 110.091 26.8512L114.045 27.079C127.977 27.9409 142.015 28.7002 155.287 23.2825C156.448 22.9028 157.613 22.5232 158.789 22.1853C161.144 21.4726 163.556 20.9645 165.998 20.6666C170.031 21.164 167.682 27.6751 166.814 30.2264Z" fill="url(#paint4_linear_576_141)"/>
<defs>
<linearGradient id="paint0_linear_576_141" x1="49087.8" y1="45314.9" x2="252.06" y2="74850.2" gradientUnits="userSpaceOnUse">
<stop stop-color="#E8001B"/>
<stop offset="1" stop-color="#F1334E"/>
</linearGradient>
<linearGradient id="paint1_linear_576_141" x1="56049.7" y1="52132" x2="7010.15" y2="83106.6" gradientUnits="userSpaceOnUse">
<stop stop-color="#E8001B"/>
<stop offset="1" stop-color="#F1334E"/>
</linearGradient>
<linearGradient id="paint2_linear_576_141" x1="79866.3" y1="44010.1" x2="43950.3" y2="85911.5" gradientUnits="userSpaceOnUse">
<stop stop-color="#E8001B"/>
<stop offset="1" stop-color="#F1334E"/>
</linearGradient>
<linearGradient id="paint3_linear_576_141" x1="19928.3" y1="7431.85" x2="6260.67" y2="23018.8" gradientUnits="userSpaceOnUse">
<stop stop-color="#E8001B"/>
<stop offset="1" stop-color="#F1334E"/>
</linearGradient>
<linearGradient id="paint4_linear_576_141" x1="90849" y1="27844.6" x2="21441.6" y2="108414" gradientUnits="userSpaceOnUse">
<stop stop-color="#E8001B"/>
<stop offset="1" stop-color="#F1334E"/>
</linearGradient>
</defs>
</svg>
