<svg id="u:chat" xmlns="http://www.w3.org/2000/svg" width="17" height="17" viewBox="0 0 17 17">
  <path id="Vector" d="M14.167,0H2.833a3,3,0,0,0-2,.747A2.428,2.428,0,0,0,0,2.55V11.9a2.428,2.428,0,0,0,.83,1.8,3,3,0,0,0,2,.747H5.279l2.55,2.3a.959.959,0,0,0,.308.183A1.037,1.037,0,0,0,8.5,17a1.009,1.009,0,0,0,.614-.2l3.041-2.346h2.012a3,3,0,0,0,2-.747A2.428,2.428,0,0,0,17,11.9V2.55a2.428,2.428,0,0,0-.83-1.8A3,3,0,0,0,14.167,0Zm.944,11.9a.809.809,0,0,1-.277.6,1,1,0,0,1-.668.249H11.806a1.009,1.009,0,0,0-.614.2l-2.644,2.04-2.21-2a.959.959,0,0,0-.308-.183,1.037,1.037,0,0,0-.363-.063H2.833a1,1,0,0,1-.668-.249.809.809,0,0,1-.277-.6V2.55a.809.809,0,0,1,.277-.6A1,1,0,0,1,2.833,1.7H14.167a1,1,0,0,1,.668.249.809.809,0,0,1,.277.6Z" fill="#fff"/>
</svg>
