<svg id="u:bell" xmlns="http://www.w3.org/2000/svg" width="13" height="16" viewBox="0 0 13 16">
  <path id="Vector" d="M11.375,8.966V6.416a4.775,4.775,0,0,0-1.153-3.1A4.89,4.89,0,0,0,7.313,1.676V.8A.8.8,0,0,0,7.075.235a.82.82,0,0,0-1.149,0A.8.8,0,0,0,5.688.8v.874A4.89,4.89,0,0,0,2.778,3.313a4.775,4.775,0,0,0-1.153,3.1v2.55a2.435,2.435,0,0,0-1.176.876A2.385,2.385,0,0,0,0,11.228v1.6a.8.8,0,0,0,.238.567.818.818,0,0,0,.575.235H3.364a3.206,3.206,0,0,0,1.162,1.707,3.284,3.284,0,0,0,3.948,0,3.206,3.206,0,0,0,1.162-1.707h2.551a.818.818,0,0,0,.575-.235A.8.8,0,0,0,13,12.831v-1.6a2.385,2.385,0,0,0-.449-1.385,2.435,2.435,0,0,0-1.176-.876ZM3.25,6.416A3.187,3.187,0,0,1,4.2,4.147a3.28,3.28,0,0,1,4.6,0A3.187,3.187,0,0,1,9.75,6.416V8.822H3.25Zm3.25,8.02a1.641,1.641,0,0,1-.807-.217,1.615,1.615,0,0,1-.591-.585H7.9a1.615,1.615,0,0,1-.591.585A1.641,1.641,0,0,1,6.5,14.435Zm4.875-2.406H1.625v-.8a.8.8,0,0,1,.238-.567.818.818,0,0,1,.575-.235h8.125a.818.818,0,0,1,.575.235.8.8,0,0,1,.238.567Z" fill="#86878b"/>
</svg>
