<svg id="illustration_scan" data-name="illustration/scan" xmlns="http://www.w3.org/2000/svg" width="225" height="239" viewBox="0 0 225 239">
  <circle id="Oval" cx="112.5" cy="112.5" r="112.5" fill="#fff"/>
  <path id="Path" d="M38.906,21.007,17.686,35.114a11.426,11.426,0,0,1-15.81-3.234h0A11.552,11.552,0,0,1,5.094,15.993L26.314,1.886a11.426,11.426,0,0,1,15.81,3.234h0A11.552,11.552,0,0,1,38.906,21.007Z" transform="translate(151 48)" fill="#facbb6"/>
  <path id="Path-2" data-name="Path" d="M108.5,58.955c4.7,46.313-24.734,57.243-51.514,58.03-40.356,1.2-65.136-71.739-54.536-82.252,2.371-2.362,6.23-1.343,16.133-5.974a73.419,73.419,0,0,0,14.6-9.17c8.043-6.113,40.03-26.306,58.86-17.321C108.968,10.327,106.55,39.874,108.5,58.955Z" transform="translate(48 103)" fill="#fbcbb6"/>
  <path id="Path-3" data-name="Path" d="M91.986,50.385c-3.739,22.025-20.956,48.908-43.667,49.6C14.115,101.006-6.888,38.632,2.067,29.7c1.985-1.99,5.262-1.111,13.663-5.136a66.057,66.057,0,0,0,12.417-7.82c6.832-5.229,33.927-22.488,49.9-14.807C92.4,8.788,94.755,34.237,91.986,50.385Z" transform="translate(50 107)" fill="#f6b7a0"/>
  <path id="Path-4" data-name="Path" d="M20.25,108C12.816,108,0,103.483,0,89.1v-75.6A13.541,13.541,0,0,1,13.5,0h0A13.541,13.541,0,0,1,27,13.506V89.1C27,96.522,20.25,108,20.25,108Z" transform="translate(41 100)" fill="#facbb6"/>
  <ellipse id="Oval-2" data-name="Oval" cx="19.5" cy="25" rx="19.5" ry="25" transform="translate(49 167)" fill="#fbcbb6"/>
  <rect id="Rectangle" width="95" height="30" transform="translate(53 209)" fill="#383838"/>
  <rect id="Rectangle-2" data-name="Rectangle" width="95" height="2" transform="translate(53 234)" fill="#ececec"/>
  <path id="Path-5" data-name="Path" d="M15.3,89.1v-75.6A13.415,13.415,0,0,1,21.545,2.259,14.031,14.031,0,0,0,13.894,0h0A13.743,13.743,0,0,0,0,13.506V89.1C0,103.483,13.19,108,20.841,108c0,0,.939-1.567,2.159-3.964C18.682,101.132,15.3,96.384,15.3,89.1Z" transform="translate(41 100)" fill="#fbcbb6"/>
  <rect id="Rectangle-3" data-name="Rectangle" width="95" height="2" transform="translate(53 212)" fill="#ececec"/>
  <path id="Path-6" data-name="Path" d="M2.045,19H0v-.883C-.069,10.172.4,1.546.4,1.546L.835.25,13,0V7.851A11.043,11.043,0,0,1,2.045,19Z" transform="translate(41 109)" fill="#fcdbcc"/>
  <g id="Group" transform="translate(66 16)">
    <path id="Path-7" data-name="Path" d="M96.646,186.676,5.031,186.63A5.05,5.05,0,0,1,0,181.584L.092,5.045A5.05,5.05,0,0,1,5.123,0L96.738.046a5.05,5.05,0,0,1,5.031,5.045l-.092,176.539A5.05,5.05,0,0,1,96.646,186.676Z" transform="translate(0.092 0)" fill="#383838"/>
    <path id="Path-8" data-name="Path" d="M87.231,150.526.6,150.479a.612.612,0,0,1-.6-.6L.092.6a.612.612,0,0,1,.6-.6L87.323.046a.612.612,0,0,1,.6.6l-.092,149.276A.557.557,0,0,1,87.231,150.526Z" transform="translate(7.015 12.729)" fill="#fff"/>
    <path id="Path-9" data-name="Path" d="M31.015,3.333H1.662A1.657,1.657,0,0,1,0,1.666H0A1.657,1.657,0,0,1,1.662,0H31.015a1.657,1.657,0,0,1,1.662,1.666h0A1.6,1.6,0,0,1,31.015,3.333Z" transform="translate(33.415 4.629)" fill="#fff"/>
    <path id="Path-10" data-name="Path" d="M1.662,3.333h0A1.657,1.657,0,0,1,0,1.666H0A1.657,1.657,0,0,1,1.662,0h0A1.657,1.657,0,0,1,3.323,1.666h0A1.687,1.687,0,0,1,1.662,3.333Z" transform="translate(67.615 4.675)" fill="#fff"/>
  </g>
  <path id="Path-11" data-name="Path" d="M23.976,20.778l-6.532,4.357a11.25,11.25,0,0,1-15.593-3.2h0A11.445,11.445,0,0,1,5.024,6.222l6.532-4.357a11.25,11.25,0,0,1,15.593,3.2h0A11.437,11.437,0,0,1,23.976,20.778Z" transform="translate(152 115)" fill="#facbb6"/>
  <path id="Path-12" data-name="Path" d="M26.191.685C26.1.548,25.8.137,25.708,0,28.291,4.206,27.228,10.4,23,13.142l-9.957,6.4C8.818,22.285,3.006,19.847,0,15.915c.094.137.749,1.478.843,1.569a11.15,11.15,0,0,0,15.4,3.338l6.669-4.3A11.414,11.414,0,0,0,26.191.685Z" transform="translate(152.918 119.338)" fill="#f6b7a0" opacity="0.3"/>
  <path id="Shape" d="M8.259,16.955A3.675,3.675,0,0,1,5.9,15.6L.658,8.6A3.29,3.29,0,0,1,1.319,4L4.671,1.472a7.361,7.361,0,0,1,5.477-1.4,7.808,7.808,0,0,1,5.24,3.115A7.657,7.657,0,0,1,14.067,13.93L10.9,16.323A3.7,3.7,0,0,1,8.779,17,2.028,2.028,0,0,1,8.259,16.955Z" transform="matrix(0.998, 0.07, -0.07, 0.998, 156.614, 119.428)" fill="#fff" opacity="0.3"/>
  <g id="Group-2" data-name="Group" transform="translate(157 137)">
    <path id="Path-13" data-name="Path" d="M20.878,19.3l-6.361,3.138a10.084,10.084,0,0,1-13.5-4.662h0A10.25,10.25,0,0,1,5.639,4.164L12,1.026A10.084,10.084,0,0,1,25.5,5.687h0A10.17,10.17,0,0,1,20.878,19.3Z" transform="translate(0.264 0.359)" fill="#facbb6"/>
    <path id="Path-14" data-name="Path" d="M24.666.369C24.62.231,24.529.138,24.483,0a8.523,8.523,0,0,1-4.027,10.938l-9.427,4.615A8.383,8.383,0,0,1,0,12c.046.138.092.231.137.369a10.045,10.045,0,0,0,13.5,4.662L20,13.892A10.094,10.094,0,0,0,24.666.369Z" transform="translate(1.144 5.677)" fill="#facbb6" opacity="0.3"/>
    <path id="Shape-2" data-name="Shape" d="M5.994,15.633a3.109,3.109,0,0,1-1.922-1.57L.365,7.048a3.2,3.2,0,0,1,1.144-4.2L4.712.91A6.012,6.012,0,0,1,9.655.264a6.972,6.972,0,0,1,4.21,3.461,7.377,7.377,0,0,1-2.471,9.739l-3.02,1.8a2.425,2.425,0,0,1-1.556.508A2.584,2.584,0,0,1,5.994,15.633Z" transform="translate(4.44 4.398)" fill="#facbb6" opacity="0.3"/>
  </g>
  <path id="Path-15" data-name="Path" d="M67,51H0V23.073A23.031,23.031,0,0,1,22.978,0H44.022A23.031,23.031,0,0,1,67,23.073V51Z" transform="translate(83 128)" fill="#ffbe55"/>
  <path id="Path-16" data-name="Path" d="M27.29,20.758l-7.441,4.355c-5.86,3.465-13.859,2.014-17.719-3.184h0C-1.777,16.731-.15,9.66,5.71,6.242l7.441-4.355c5.86-3.465,13.859-2.014,17.719,3.184h0C34.777,10.269,33.15,17.34,27.29,20.758Z" transform="translate(146 91)" fill="#facbb6"/>
  <path id="Path-17" data-name="Path" d="M28.886.37A2.314,2.314,0,0,0,28.563,0c2.866,4.2,1.479,9.746-3.235,12.472l-11,6.421C9.613,21.617,3.281,20.6,0,16.629A2.562,2.562,0,0,0,.277,17c3.882,5.127,11.786,6.559,17.609,3.141l7.395-4.3C31.151,12.472,32.769,5.5,28.886.37Z" transform="translate(148 96)" fill="#f6b7a0" opacity="0.3"/>
  <path id="Shape-3" data-name="Shape" d="M8.269,16.955A3.679,3.679,0,0,1,5.906,15.6L.659,8.6A3.287,3.287,0,0,1,1.32,4L4.676,1.472A7.377,7.377,0,0,1,10.16.072a7.821,7.821,0,0,1,5.247,3.115A7.694,7.694,0,0,1,14.083,13.93l-3.167,2.393A3.4,3.4,0,0,1,8.789,17,2.035,2.035,0,0,1,8.269,16.955Z" transform="translate(150 97)" fill="#fff" opacity="0.3"/>
  <circle id="Oval-3" data-name="Oval" cx="8.5" cy="8.5" r="8.5" transform="translate(108 182)" fill="#fff"/>
  <g id="Group-3" data-name="Group" transform="translate(84 39)">
    <path id="Path-18" data-name="Path" d="M22.089,25.78,21.072.554,1.206,0,0,29.568C-.134,32.8,2.685,32.2,5.919,32.063l10.949-.554A5.5,5.5,0,0,0,22.089,25.78Z" transform="translate(21.85 65.102)" fill="#facbb6"/>
    <path id="Path-19" data-name="Path" d="M0,5.267,19.82,16.909,19.127,0Z" transform="translate(23.795 65.657)" fill="#f6b7a0"/>
    <path id="Path-20" data-name="Path" d="M14.876,7.438A7.438,7.438,0,1,1,7.438,0,7.433,7.433,0,0,1,14.876,7.438Z" transform="translate(51.746 40.247)" fill="#facbb6"/>
    <circle id="Oval-4" data-name="Oval" cx="7.438" cy="7.438" r="7.438" transform="translate(0.418 40.247)" fill="#facbb6"/>
    <path id="Path-21" data-name="Path" d="M46.386,23.476a105.264,105.264,0,0,1-2.726,23.47c-1.34,5.683-5.128,9.656-10.441,12.844l-.97.554a18.592,18.592,0,0,1-18.665.231h0C7.809,57.295,3.79,52.952,2.542,46.853A149.594,149.594,0,0,1,.048,23.476S-2.124-.455,22.87.007C47.865.515,46.386,23.476,46.386,23.476Z" transform="translate(10.257 10.903)" fill="#facbb6"/>
    <g id="Group-4" data-name="Group" transform="translate(5.962 16.084)">
      <path id="Path-22" data-name="Path" d="M5.534,28S10.8,11,6.966,0C7.013,0-7.725,4.2,5.534,28Z" transform="translate(0.148 0.046)" fill="#01384f"/>
      <path id="Path-23" data-name="Path" d="M4.009,28S-2.644,11,1.191,0C1.145,0,14.912,3.373,4.009,28Z" transform="translate(45.748 0.046)" fill="#01384f"/>
    </g>
    <path id="Path-24" data-name="Path" d="M1.2,16.56s4.2-7.623,11.781-3.419,15.061,8.224,28.6,4.9l-1.8-9.148s-18.8-20-39.778,0Z" transform="translate(12.984 7.193)" fill="#01384f"/>
    <path id="Path-25" data-name="Path" d="M0,15.157S1.2,1.3,20.79.1s25.364,9.24,25.364,9.24L42.6,9.983s6.838,2.957,8.639,5.821L47.4,17.144l5.082,4.528S36.5,27.862,27.674,24.536L20.328,13.448Z" transform="translate(12.984 0.927)" fill="#01384f"/>
    <path id="Path-26" data-name="Path" d="M8.278,0,.008.139s-.878,10.487,15.246,11S31.655.785,31.655.785L22.924,0H8.278Z" transform="translate(16.949 88.433)" fill="#facbb6"/>
  </g>
  <path id="Shape-4" data-name="Shape" d="M0,60V0H60V60Z" transform="translate(86 55)" fill="#e8001b"/>
  <path id="Path-27" data-name="Path" d="M9,9H8.254V.746H0V0H9Z" transform="translate(135 57)" fill="#fff"/>
  <path id="Path-28" data-name="Path" d="M.789,9H0V0H9V.746H.789Z" transform="translate(88 57)" fill="#fff"/>
  <path id="Path-29" data-name="Path" d="M9,9H0V0H.789V8.211H9Z" transform="translate(88 104)" fill="#fff"/>
  <path id="Path-30" data-name="Path" d="M9,9H0V8.211H8.254V0H9Z" transform="translate(135 104)" fill="#fff"/>
  <path id="Shape-5" data-name="Shape" d="M6.316,12.966A2.81,2.81,0,0,1,4.511,11.93L.5,6.58a2.516,2.516,0,0,1,.506-3.521L3.572,1.125A5.629,5.629,0,0,1,7.761.055a5.97,5.97,0,0,1,4.007,2.382,5.855,5.855,0,0,1-1.01,8.216l-2.419,1.83A2.829,2.829,0,0,1,6.713,13,1.551,1.551,0,0,1,6.316,12.966Z" transform="matrix(0.995, 0.105, -0.105, 0.995, 162.076, 143.356)" fill="#fff" opacity="0.3"/>
</svg>
