<svg id="u:lock-alt" xmlns="http://www.w3.org/2000/svg" width="13" height="16" viewBox="0 0 13 16">
  <path id="Vector" d="M6.5,8.8a.819.819,0,0,0-.575.234.794.794,0,0,0-.238.566V12a.794.794,0,0,0,.238.566.822.822,0,0,0,1.149,0A.794.794,0,0,0,7.313,12V9.6a.794.794,0,0,0-.238-.566A.819.819,0,0,0,6.5,8.8Zm4.063-3.2V4a3.969,3.969,0,0,0-1.19-2.828,4.108,4.108,0,0,0-5.745,0A3.969,3.969,0,0,0,2.438,4V5.6a2.457,2.457,0,0,0-1.724.7A2.381,2.381,0,0,0,0,8v5.6a2.381,2.381,0,0,0,.714,1.7,2.457,2.457,0,0,0,1.724.7h8.125a2.457,2.457,0,0,0,1.724-.7A2.381,2.381,0,0,0,13,13.6V8a2.381,2.381,0,0,0-.714-1.7A2.457,2.457,0,0,0,10.563,5.6ZM4.063,4a2.381,2.381,0,0,1,.714-1.7,2.465,2.465,0,0,1,3.447,0A2.381,2.381,0,0,1,8.938,4V5.6H4.063Zm7.313,9.6a.794.794,0,0,1-.238.566.819.819,0,0,1-.575.234H2.438a.819.819,0,0,1-.575-.234.794.794,0,0,1-.238-.566V8a.794.794,0,0,1,.238-.566A.819.819,0,0,1,2.438,7.2h8.125a.819.819,0,0,1,.575.234A.794.794,0,0,1,11.375,8Z" fill="#86878b"/>
</svg>
