<svg xmlns="http://www.w3.org/2000/svg" width="17.001" height="17" viewBox="0 0 17.001 17">
  <path id="Vector" d="M15.589,6.219,3.688.267A2.55,2.55,0,0,0,.22,3.583L2.26,8.149a.9.9,0,0,1,0,.7L.22,13.412A2.55,2.55,0,0,0,2.549,17,2.668,2.668,0,0,0,3.7,16.728l11.9-5.952a2.551,2.551,0,0,0,0-4.557Zm-.757,3.035-11.9,5.952A.85.85,0,0,1,1.784,14.1L3.816,9.535a1.7,1.7,0,0,0,.068-.187H9.74a.85.85,0,0,0,0-1.7H3.884a1.7,1.7,0,0,0-.068-.187L1.784,2.894A.85.85,0,0,1,2.932,1.789l11.9,5.952a.85.85,0,0,1,0,1.513Z" transform="translate(0 0)"/>
</svg>
