<svg id="u:cog" xmlns="http://www.w3.org/2000/svg" width="14" height="14" viewBox="0 0 14 14">
  <path id="Vector" d="M13.524,5.285,12.2,4.844,12.824,3.6a.7.7,0,0,0-.133-.8L11.2,1.309a.7.7,0,0,0-.805-.133L9.149,1.8,8.708.476A.7.7,0,0,0,8.05,0H5.95a.7.7,0,0,0-.665.476L4.844,1.8,3.6,1.176a.7.7,0,0,0-.8.133L1.309,2.8a.7.7,0,0,0-.133.805L1.8,4.851.476,5.292A.7.7,0,0,0,0,5.95v2.1a.7.7,0,0,0,.476.665L1.8,9.156,1.176,10.4a.7.7,0,0,0,.133.8L2.8,12.691a.7.7,0,0,0,.805.133L4.851,12.2l.441,1.323A.7.7,0,0,0,5.957,14h2.1a.7.7,0,0,0,.665-.476L9.163,12.2l1.246.623a.7.7,0,0,0,.791-.133L12.691,11.2a.7.7,0,0,0,.133-.805L12.2,9.149l1.323-.441A.7.7,0,0,0,14,8.05V5.95a.7.7,0,0,0-.476-.665ZM12.6,7.546l-.84.28A1.4,1.4,0,0,0,10.948,9.8l.4.8-.77.77-.777-.42a1.4,1.4,0,0,0-1.953.812l-.28.84H6.454l-.28-.84A1.4,1.4,0,0,0,4.2,10.948l-.8.4-.77-.77.42-.777A1.4,1.4,0,0,0,2.24,7.826l-.84-.28V6.454l.84-.28A1.4,1.4,0,0,0,3.052,4.2l-.4-.777.77-.77.777.4A1.4,1.4,0,0,0,6.174,2.24l.28-.84H7.546l.28.84A1.4,1.4,0,0,0,9.8,3.052l.8-.4.77.77-.42.777a1.4,1.4,0,0,0,.812,1.953l.84.28ZM7,4.2a2.8,2.8,0,1,0,1.98.82A2.8,2.8,0,0,0,7,4.2ZM7,8.4a1.4,1.4,0,1,1,.99-.41A1.4,1.4,0,0,1,7,8.4Z" fill="#fff"/>
</svg>
