<svg xmlns="http://www.w3.org/2000/svg" width="19.377" height="21.364" viewBox="0 0 19.377 21.364">
  <g id="Icon_feather-share-2" data-name="Icon feather-share-2" transform="translate(-3.75 -2.25)">
    <path id="Path_199653" data-name="Path 199653" d="M28.459,5.98A2.98,2.98,0,1,1,25.48,3a2.98,2.98,0,0,1,2.98,2.98Z" transform="translate(-6.082)" fill="none" stroke="#fff" stroke-linecap="round" stroke-linejoin="round" stroke-width="1.5"/>
    <path id="Path_199654" data-name="Path 199654" d="M10.459,16.48A2.98,2.98,0,1,1,7.48,13.5,2.98,2.98,0,0,1,10.459,16.48Z" transform="translate(0 -3.548)" fill="none" stroke="#fff" stroke-linecap="round" stroke-linejoin="round" stroke-width="1.5"/>
    <path id="Path_199655" data-name="Path 199655" d="M28.459,26.98A2.98,2.98,0,1,1,25.48,24,2.98,2.98,0,0,1,28.459,26.98Z" transform="translate(-6.082 -7.095)" fill="none" stroke="#fff" stroke-linecap="round" stroke-linejoin="round" stroke-width="1.5"/>
    <path id="Path_199656" data-name="Path 199656" d="M12.885,20.265l6.783,3.953" transform="translate(-2.833 -5.833)" fill="none" stroke="#fff" stroke-linecap="round" stroke-linejoin="round" stroke-width="1.5"/>
    <path id="Path_199657" data-name="Path 199657" d="M19.659,9.765l-6.774,3.953" transform="translate(-2.833 -2.286)" fill="none" stroke="#fff" stroke-linecap="round" stroke-linejoin="round" stroke-width="1.5"/>
  </g>
</svg>
