<svg xmlns="http://www.w3.org/2000/svg" width="16.664" height="15.628" viewBox="0 0 16.664 15.628">
  <path id="Icon_simple-snapchat" data-name="Icon simple-snapchat" d="M7.965,1.189a4.17,4.17,0,0,1,3.87,2.493,7.841,7.841,0,0,1,.2,3.163l0,.039c-.008.117-.014.225-.02.333a.507.507,0,0,0,.262.059,1.833,1.833,0,0,0,.674-.2.65.65,0,0,1,.3-.068.893.893,0,0,1,.332.059.62.62,0,0,1,.479.547q.015.439-.792.762c-.058.019-.136.049-.224.078-.294.088-.743.235-.87.529a.683.683,0,0,0,.078.566l.01.01a4.6,4.6,0,0,0,3.126,2.619.326.326,0,0,1,.274.332.4.4,0,0,1-.029.147c-.157.371-.831.645-2.053.829a1.752,1.752,0,0,0-.107.372,2.626,2.626,0,0,1-.087.361.342.342,0,0,1-.362.264H13a2.082,2.082,0,0,1-.351-.048,3.937,3.937,0,0,0-.831-.088,3.171,3.171,0,0,0-.6.048,2.927,2.927,0,0,0-1.124.577,3.557,3.557,0,0,1-2.15.84c-.039,0-.078-.01-.117-.01h-.1a3.472,3.472,0,0,1-2.14-.84,2.894,2.894,0,0,0-1.114-.577,4.322,4.322,0,0,0-.606-.048,4.1,4.1,0,0,0-.83.1,1.878,1.878,0,0,1-.352.048.364.364,0,0,1-.38-.274c-.04-.125-.059-.254-.088-.37a1.731,1.731,0,0,0-.108-.372c-1.252-.145-1.925-.419-2.081-.8A.392.392,0,0,1,0,12.523a.324.324,0,0,1,.274-.332A4.6,4.6,0,0,0,3.4,9.568l.01-.019a.651.651,0,0,0,.078-.567c-.127-.283-.577-.429-.869-.528a1.457,1.457,0,0,1-.226-.078c-.722-.284-.82-.607-.781-.831a.771.771,0,0,1,.762-.517.661.661,0,0,1,.25.048,1.785,1.785,0,0,0,.72.2.617.617,0,0,0,.3-.069l-.03-.371a7.833,7.833,0,0,1,.2-3.156A4.1,4.1,0,0,1,7.653,1.2l.273-.01h.039Z" transform="translate(0.501 -0.688)" fill="none" stroke="#86878b" stroke-width="1"/>
</svg>
