<svg xmlns="http://www.w3.org/2000/svg" width="18" height="18" viewBox="0 0 18 18">
  <g id="Group_3222" data-name="Group 3222" transform="translate(0 -0.5)">
    <path id="Path_199604" data-name="Path 199604" d="M9.082,2A7.6,7.6,0,0,0,3.73,4.2a7.456,7.456,0,0,0,0,10.607,7.6,7.6,0,0,0,4.595,2.159V15.5a.757.757,0,0,1,1.514,0v2.25a.753.753,0,0,1-.757.75A9.124,9.124,0,0,1,2.66,15.864a8.947,8.947,0,0,1,0-12.728A9.124,9.124,0,0,1,9.082.5a.75.75,0,1,1,0,1.5Z" transform="translate(0)" fill="#fff"/>
    <path id="Path_199605" data-name="Path 199605" d="M22.7,12.8a.757.757,0,0,1,.663.84,9.08,9.08,0,0,1-.252,1.305.757.757,0,0,1-1.461-.4,7.562,7.562,0,0,0,.21-1.088A.757.757,0,0,1,22.7,12.8Z" transform="translate(-5.581 -3.087)" fill="#fff"/>
    <path id="Path_199606" data-name="Path 199606" d="M21.942,6.384a.757.757,0,0,0-1.311.756,7.562,7.562,0,0,1,.482,1,.757.757,0,0,0,1.408-.557A9.083,9.083,0,0,0,21.942,6.384Z" transform="translate(-5.317 -1.383)" fill="#fff"/>
    <path id="Path_199607" data-name="Path 199607" d="M15.571,1.911a.757.757,0,0,1,1-.381,9.082,9.082,0,0,1,1.17.632.757.757,0,0,1-.815,1.276,7.575,7.575,0,0,0-.975-.527A.757.757,0,0,1,15.571,1.911Z" transform="translate(-4.012 -0.234)" fill="#fff"/>
    <path id="Path_199608" data-name="Path 199608" d="M9.977,12.887c1.994,1.471,4.35-4.541,3.975-4.863S7.983,11.416,9.977,12.887Z" transform="translate(-2.491 -1.896)" fill="#fff"/>
    <path id="Path_199609" data-name="Path 199609" d="M16.43,19.211a1.04,1.04,0,0,0-1.026.87L15.085,22a1.04,1.04,0,0,0,1.026,1.21H16.3a1.04,1.04,0,0,0,1.028-.883l.293-1.923a1.04,1.04,0,0,0-1.028-1.2Zm.163.946H16.43a.094.094,0,0,0-.093.079l-.319,1.923a.094.094,0,0,0,.093.109H16.3a.094.094,0,0,0,.093-.08l.293-1.923A.094.094,0,0,0,16.593,20.157Z" transform="translate(-3.9 -4.714)" fill="#fff" fill-rule="evenodd"/>
    <path id="Path_199610" data-name="Path 199610" d="M20.678,19.211H19.1a.076.076,0,0,0-.075.065l-.575,3.852a.076.076,0,0,0,.075.087h.72a.076.076,0,0,0,.075-.063l.257-1.519a.076.076,0,0,1,.075-.063h.611a.076.076,0,0,0,.075-.063l.118-.667a.076.076,0,0,0-.075-.089h-.568a.076.076,0,0,1-.075-.087l.094-.6A.076.076,0,0,1,19.905,20h.655a.076.076,0,0,0,.074-.062l.117-.641A.076.076,0,0,0,20.678,19.211Z" transform="translate(-4.811 -4.714)" fill="#fff"/>
    <path id="Path_199611" data-name="Path 199611" d="M23.4,19.211H21.818a.076.076,0,0,0-.075.065l-.575,3.852a.076.076,0,0,0,.075.087h.72a.076.076,0,0,0,.075-.063l.257-1.519a.076.076,0,0,1,.075-.063h.611a.076.076,0,0,0,.075-.063l.118-.667a.076.076,0,0,0-.074-.089H22.53a.076.076,0,0,1-.075-.087l.094-.6A.076.076,0,0,1,22.623,20h.655a.076.076,0,0,0,.074-.062l.117-.641A.076.076,0,0,0,23.4,19.211Z" transform="translate(-5.472 -4.714)" fill="#fff"/>
  </g>
</svg>
