<svg id="Vector" xmlns="http://www.w3.org/2000/svg" xmlns:xlink="http://www.w3.org/1999/xlink" width="19" height="19" viewBox="0 0 19 19">
  <defs>
    <linearGradient id="linear-gradient" x1="0.824" y1="0.088" x2="0.124" y2="0.902" gradientUnits="objectBoundingBox">
      <stop offset="0" stop-color="#3511d7"/>
      <stop offset="1" stop-color="#e8001b"/>
    </linearGradient>
  </defs>
  <path id="Path_3040" data-name="Path 3040" d="M9.5,19A9.5,9.5,0,1,0,0,9.5,9.5,9.5,0,0,0,9.5,19Z" fill="url(#linear-gradient)"/>
  <g id="Group_2873" data-name="Group 2873" transform="translate(3.252 3.829)">
    <path id="Path_3041" data-name="Path 3041" d="M11.093,4.555a.127.127,0,0,1-.221-.034l-.013-.039a.126.126,0,0,1,0-.078,2.76,2.76,0,0,0-.065-1.159l0,0a2.759,2.759,0,0,0-1.129.266.123.123,0,0,1-.075.021l-.04,0a.127.127,0,0,1-.1-.2l.014-.016a2.335,2.335,0,0,1,1.746-.675l.015,0a.034.034,0,0,1,.025.019l.01.022A2.339,2.339,0,0,1,11.1,4.536Z" transform="translate(1.103 -2.625)" fill="#fff"/>
    <path id="Path_3042" data-name="Path 3042" d="M10.983,7.4c.269,0,.373.12.373.239A15.12,15.12,0,0,1,10.22,9.374c-.1.164-.149.224-.269.224a14.154,14.154,0,0,0-2.468-.286A26.765,26.765,0,0,0,6.27,13.234c-.045.269-.12.434-.359.434-.688,0-1.87-.18-1.87-.718A39.731,39.731,0,0,1,6.809,5.455l.007-.012a.384.384,0,0,0-.466-.555A2.723,2.723,0,0,0,4.3,7.175a2.5,2.5,0,0,0,.373,1.317c0,.09-.09.149-.24.149a2.314,2.314,0,0,1-2.2-2.125c0-2.5,3.038-2.992,5.985-2.992,1.586,0,2.888.165,3.5.165a6.923,6.923,0,0,0,2.05-.419.157.157,0,0,1,.165.165c0,.9-1.274,1.806-1.843,1.806s-1.464-.355-2.481-.355c-.194,0-.344.12-.509.419-.464.913-.921,2.1-1.31,3.071A9.271,9.271,0,0,1,10.983,7.4Z" transform="translate(-2.23 -2.326)" fill="#fff"/>
  </g>
</svg>
