<svg xmlns="http://www.w3.org/2000/svg" width="18" height="19" viewBox="0 0 18 19">
  <g id="Group_3227" data-name="Group 3227" transform="translate(0 -0.5)">
    <path id="Path_199617" data-name="Path 199617" d="M6,1.279A.779.779,0,0,1,6.779.5H11.84a.779.779,0,0,1,0,1.557H6.779A.779.779,0,0,1,6,1.279Z" transform="translate(-1.149)" fill="#fff"/>
    <path id="Path_199618" data-name="Path 199618" d="M14.765,4A.789.789,0,0,1,14.8,5.118L13.81,6.157a8.138,8.138,0,0,1,1.835,2.523.791.791,0,0,1-.391,1.053.8.8,0,0,1-1.062-.388,6.563,6.563,0,0,0-2.384-2.738A6.644,6.644,0,0,0,4.8,6.477,6.532,6.532,0,0,0,5.865,18.215a6.65,6.65,0,0,0,3.634.3.794.794,0,1,1,.315,1.556A8.234,8.234,0,0,1,1.67,17.01,8.1,8.1,0,0,1,3.977,5.117a8.256,8.256,0,0,1,8.558.068l1.1-1.155A.8.8,0,0,1,14.765,4Z" transform="translate(0 -0.726)" fill="#fff"/>
    <path id="Path_199619" data-name="Path 199619" d="M10.283,9.779a.779.779,0,1,0-1.557,0v3.146l-2.454,2.1A.779.779,0,0,0,7.285,16.21l3-2.569Z" transform="translate(-1.181 -1.699)" fill="#fff"/>
    <path id="Path_199620" data-name="Path 199620" d="M17.929,15.626a.626.626,0,0,0-.078.355A.779.779,0,0,1,16.3,16.1a2.183,2.183,0,1,1,3.947,1.1,2.566,2.566,0,1,1-4.257,1.929.779.779,0,0,1,1.557,0,1.008,1.008,0,1,0,1.008-1.008.789.789,0,0,1-.029-1.574.626.626,0,1,0-.6-.929Z" transform="translate(-3.119 -2.621)" fill="#fff"/>
  </g>
</svg>
