<svg id="u:wrench" xmlns="http://www.w3.org/2000/svg" width="16" height="16.003" viewBox="0 0 16 16.003">
  <path id="Vector" d="M15.733,10.862,12.125,7.254a5.491,5.491,0,0,0,.112-1.12A6.121,6.121,0,0,0,3.527.574.8.8,0,0,0,3.3,1.87L6.768,5.342,5.331,6.782,1.866,3.3a.807.807,0,0,0-1.293.232,6.132,6.132,0,0,0,5.588,8.728,5.457,5.457,0,0,0,1.118-.112l3.6,3.616a.8.8,0,1,0,1.134-1.136L8.1,10.71a.8.8,0,0,0-.758-.208,4.685,4.685,0,0,1-1.182.16A4.534,4.534,0,0,1,1.6,6.134a4.81,4.81,0,0,1,.064-.8L4.788,8.478a.8.8,0,0,0,1.134,0L8.461,5.91a.8.8,0,0,0,0-1.112L5.355,1.662a4.876,4.876,0,0,1,.8-.064,4.531,4.531,0,0,1,4.518,4.536,4.713,4.713,0,0,1-.16,1.184.8.8,0,0,0,.208.76L14.632,12a.8.8,0,0,0,1.134-1.136Z" transform="translate(0)" fill="#86878b"/>
</svg>
