<svg id="u:unlock-alt" xmlns="http://www.w3.org/2000/svg" width="12.001" height="15" viewBox="0 0 12.001 15">
  <path id="Vector" d="M6,8.25A.75.75,0,0,0,5.25,9v2.25a.75.75,0,0,0,1.5,0V9A.75.75,0,0,0,6,8.25Zm3.75-3h-6v-1.5a2.25,2.25,0,0,1,3.84-1.6,2.31,2.31,0,0,1,.585,1.035.751.751,0,1,0,1.455-.375,3.818,3.818,0,0,0-.983-1.718,3.75,3.75,0,0,0-6.4,2.655v1.5A2.25,2.25,0,0,0,0,7.5v5.25A2.25,2.25,0,0,0,2.25,15h7.5A2.25,2.25,0,0,0,12,12.75V7.5a2.25,2.25,0,0,0-2.25-2.25Zm.75,7.5a.75.75,0,0,1-.75.75H2.25a.75.75,0,0,1-.75-.75V7.5a.75.75,0,0,1,.75-.75h7.5a.75.75,0,0,1,.75.75Z" transform="translate(0 0)"/>
</svg>
