<svg xmlns="http://www.w3.org/2000/svg" width="16" height="16" viewBox="0 0 16 16">
  <g id="user" transform="translate(-684 -401)">
    <rect id="Rectangle_4" data-name="Rectangle 4" width="16" height="16" transform="translate(684 401)" fill="none"/>
    <g id="user-2" data-name="user" transform="translate(685 401)">
      <g id="Squircle" transform="translate(0 20)">
        <path id="Path_7" data-name="Path 7" d="M0-7C0-4.53,1.235-4,7-4s7-.53,7-3-1.235-3-7-3S0-9.471,0-7Z" fill="none"/>
        <path id="Path_8" data-name="Path 8" d="M7-8.5a17.305,17.305,0,0,0-5.071.452C1.643-7.925,1.5-7.864,1.5-7s.143.925.429,1.048A17.305,17.305,0,0,0,7-5.5a17.305,17.305,0,0,0,5.071-.452c.286-.122.429-.184.429-1.048s-.143-.925-.429-1.048A17.305,17.305,0,0,0,7-8.5M7-10c5.764,0,7,.53,7,3S12.764-4,7-4,0-4.53,0-7,1.235-10,7-10Z"/>
      </g>
      <g id="Ellipse_43" data-name="Ellipse 43" transform="translate(11 8) rotate(180)" fill="none" stroke="#000" stroke-width="1.5">
        <circle cx="4" cy="4" r="4" stroke="none"/>
        <circle cx="4" cy="4" r="3.25" fill="none"/>
      </g>
    </g>
  </g>
</svg>
