<svg xmlns="http://www.w3.org/2000/svg" width="18" height="16" viewBox="0 0 18 16">
  <path id="Vector" d="M6.545,10.4a.831.831,0,0,0-.455.135.8.8,0,0,0-.3.359.784.784,0,0,0-.047.462.8.8,0,0,0,.224.41.824.824,0,0,0,.419.219.835.835,0,0,0,.473-.046.815.815,0,0,0,.367-.295.787.787,0,0,0-.1-1.01A.828.828,0,0,0,6.545,10.4ZM.818,9.6a.828.828,0,0,0-.579.234A.791.791,0,0,0,0,10.4V12a.791.791,0,0,0,.24.566.831.831,0,0,0,1.157,0A.791.791,0,0,0,1.636,12V10.4a.791.791,0,0,0-.24-.566A.828.828,0,0,0,.818,9.6Zm16.364,0a.828.828,0,0,0-.579.234.791.791,0,0,0-.24.566V12a.791.791,0,0,0,.24.566.831.831,0,0,0,1.157,0A.791.791,0,0,0,18,12V10.4a.791.791,0,0,0-.24-.566A.828.828,0,0,0,17.182,9.6ZM13.091,4H9.818V2.976a1.619,1.619,0,0,0,.6-.581A1.559,1.559,0,0,0,10.157.469a1.663,1.663,0,0,0-2.314,0,1.559,1.559,0,0,0-.258,1.926,1.619,1.619,0,0,0,.6.581V4H4.909a2.483,2.483,0,0,0-1.736.7,2.373,2.373,0,0,0-.719,1.7v7.2a2.373,2.373,0,0,0,.719,1.7,2.483,2.483,0,0,0,1.736.7h8.182a2.483,2.483,0,0,0,1.736-.7,2.373,2.373,0,0,0,.719-1.7V6.4a2.373,2.373,0,0,0-.719-1.7A2.483,2.483,0,0,0,13.091,4ZM10.407,5.6,10,7.2H8L7.593,5.6Zm3.5,8a.791.791,0,0,1-.24.566.828.828,0,0,1-.579.234H4.909a.828.828,0,0,1-.579-.234.791.791,0,0,1-.24-.566V6.4a.791.791,0,0,1,.24-.566A.828.828,0,0,1,4.909,5.6h1l.638,2.592a.8.8,0,0,0,.3.445.831.831,0,0,0,.519.163h3.273a.831.831,0,0,0,.519-.163.8.8,0,0,0,.3-.445L12.093,5.6h1a.828.828,0,0,1,.579.234.791.791,0,0,1,.24.566Zm-2.455-3.2a.831.831,0,0,0-.455.135.8.8,0,0,0-.3.359.784.784,0,0,0-.047.462.8.8,0,0,0,.224.41.824.824,0,0,0,.419.219.835.835,0,0,0,.473-.046.815.815,0,0,0,.367-.295.787.787,0,0,0-.1-1.01A.828.828,0,0,0,11.455,10.4Z" fill="#161722"/>
</svg>
