<svg xmlns="http://www.w3.org/2000/svg" width="16" height="16" viewBox="0 0 16 16">
  <g id="Wallet" transform="translate(-575 -401)">
    <g id="Wallet-2" data-name="Wallet" transform="translate(575 401)">
      <g id="Squircle" transform="translate(0 24)">
        <path id="Path_3" data-name="Path 3" d="M0-16C0-9.412,1.412-8,8-8c5.583,0,7.449-1.014,7.888-5.333C15.967-14.111,16-15,16-16s-.033-1.889-.112-2.667C15.449-22.986,13.583-24,8-24,1.412-24,0-22.588,0-16Z" fill="none"/>
        <path id="Path_4" data-name="Path 4" d="M8-22.5c-3.028,0-4.646.326-5.41,1.09S1.5-19.028,1.5-16s.326,4.646,1.09,5.41S4.972-9.5,8-9.5c2.641,0,4.2-.248,5.055-.8.539-.351,1.12-1,1.341-3.181.07-.689.1-1.512.1-2.515s-.034-1.825-.1-2.515c-.221-2.178-.8-2.83-1.341-3.181-.855-.556-2.414-.8-5.055-.8M8-24c5.583,0,7.449,1.014,7.888,5.333C15.967-17.889,16-17,16-16s-.033,1.889-.112,2.667C15.449-9.014,13.583-8,8-8,1.412-8,0-9.412,0-16S1.412-24,8-24Z"/>
      </g>
      <path id="Squircle-2" data-name="Squircle" d="M20-16H15.585a2.506,2.506,0,0,0-1.821.7A2.506,2.506,0,0,0,13-13.5a2.506,2.506,0,0,0,.764,1.8,2.506,2.506,0,0,0,1.821.7H20m-4.415-2.5h1.292" transform="translate(-5 21.5)" fill="none" stroke="#000" stroke-linecap="round" stroke-linejoin="round" stroke-width="1.5"/>
    </g>
    <rect id="Rectangle_2" data-name="Rectangle 2" width="16" height="16" transform="translate(575 401)" fill="none"/>
  </g>
</svg>
